<svg width="56" height="57" viewBox="0 0 56 57" fill="none" xmlns="http://www.w3.org/2000/svg">
<path d="M9.33342 5.27002H46.6668C49.2334 5.27002 51.3334 7.37002 51.3334 9.93669V23.9367H23.3334V47.27H33.9501C34.3701 47.97 34.7901 48.6234 35.2101 49.23C35.8868 50.2334 36.5401 51.1434 37.1468 51.9367H9.33342C6.76675 51.9367 4.66675 49.8367 4.66675 47.27V9.93669C4.66675 7.37002 6.76675 5.27002 9.33342 5.27002ZM18.6667 9.93669H9.33342V33.27H18.6667V9.93669ZM9.33342 37.9367V47.27H18.6667V37.9367H9.33342ZM23.3334 19.27H46.6668V9.93669H23.3334V19.27ZM43.1668 51.9367C43.1668 51.9367 41.8134 50.42 40.2034 48.2267C39.9934 47.9234 39.7601 47.5967 39.5268 47.27C37.3334 44.1434 35.0001 40.0134 35.0001 36.77C35.0001 32.3367 38.7334 28.6034 43.1668 28.6034C44.4034 28.6034 45.5934 28.9067 46.6668 29.42C49.3968 30.75 51.3334 33.5734 51.3334 36.77C51.3334 40.3634 48.4634 45.03 46.1301 48.2267C44.5201 50.42 43.1668 51.9367 43.1668 51.9367ZM40.3667 37.0034C40.3667 38.4034 41.5334 39.8034 43.1668 39.8034C44.8001 39.8034 46.2001 38.4034 45.9668 37.0034C45.9668 35.6034 44.5667 34.2034 43.1668 34.2034C41.7668 34.2034 40.3667 35.37 40.3667 37.0034Z" fill="#0090BC"/>
</svg>
