<svg width="56" height="57" viewBox="0 0 56 57" fill="none" xmlns="http://www.w3.org/2000/svg">
<path d="M33.7977 12.7991C32.8265 12.8061 31.8622 12.8534 30.8438 13.1264C29.7339 13.4268 28.681 13.9075 27.727 14.5491C26.3865 13.7616 25.088 13.1141 23.8438 12.9619C22.2985 12.7711 20.8635 12.8744 19.1957 12.9094C17.2182 12.9496 15.9285 13.9594 13.8355 14.7679C11.7443 15.5729 9.051 16.3534 5.25 16.3534H3.5V33.1971L4.48525 33.6889L7.7105 35.2761L19.1957 48.0721L19.25 48.1264C20.5625 49.4249 22.3335 49.7469 23.898 49.6576C25.4643 49.5701 26.9342 49.1116 28.1085 48.4011C30.6933 46.8419 37.7335 41.9471 37.7335 41.9471L37.898 41.8369L38.0083 41.7284C38.8413 40.9006 39.2595 39.8909 39.5395 38.8304L46.2648 35.4389L51.296 33.7449L52.5 33.3599V16.3534H50.75C47.8081 16.3753 44.8908 15.8176 42.1645 14.7119C40.0715 13.8946 38.801 12.8954 36.8025 12.8534C35.735 12.8324 34.7673 12.7921 33.7977 12.7991ZM33.8503 16.2991C34.6378 16.2921 35.5477 16.3341 36.6958 16.3534C36.8795 16.3604 38.5612 17.0779 40.9062 17.9949C42.889 18.7736 45.6435 19.4649 49 19.6889V30.8451L44.9523 32.2136H44.8438L44.7335 32.2661L39.431 34.9471C39.1495 34.135 38.7026 33.3902 38.1185 32.7596L38.0083 32.5951L30.5707 23.4636L29.477 22.0951L28.1085 23.1889L23.4062 27.0179C21.8277 28.1116 20.5485 27.7966 19.25 27.1824C18.8737 27.0039 18.8947 26.9496 18.5938 26.7449L26.579 20.1264L26.6875 20.0179C29.0588 17.6659 30.5165 16.8521 31.773 16.5179C32.403 16.3464 33.0645 16.3061 33.8503 16.2991ZM21.658 16.3534C22.2419 16.3297 22.8267 16.3478 23.408 16.4076C23.8665 16.4619 24.3862 16.8521 24.8307 17.0096C24.6523 17.1741 24.5227 17.2686 24.3372 17.4471L24.2288 17.5574L14.658 25.4849L13.181 26.6889L14.4935 28.0556C14.4935 28.0556 15.7588 29.4241 17.7205 30.3534C19.6823 31.2826 22.7115 31.8094 25.431 29.9159L25.5413 29.8056L28.931 27.0179L35.385 34.9471L35.4392 35.0574L35.4935 35.1099C36.6485 36.2526 36.6222 38.0499 35.4935 39.2136C35.4795 39.2259 35.5075 39.2539 35.4935 39.2661C35.4795 39.2749 35.2485 39.4114 35.2205 39.4324L32.9227 36.3139L30.079 38.3929L32.3225 41.3994C31.4125 42.0154 31.003 42.3374 30.0247 42.9866L27.6745 39.8139L24.829 41.8929L27.0725 44.8994C26.873 45.0219 26.4635 45.2966 26.306 45.3929C25.753 45.7271 24.6855 46.1034 23.7352 46.1576C22.841 46.2066 22.1567 46.0001 21.8225 45.7201L21.7682 45.6659L10.0642 32.7054L9.8455 32.4306L7 31.0096V19.6889C10.3425 19.4701 13.118 18.8069 15.0938 18.0491C17.4318 17.1531 19.1013 16.4146 19.3043 16.4076L21.658 16.3534Z" fill="#0090BC"/>
</svg>
