<svg width="56" height="57" viewBox="0 0 56 57" fill="none" xmlns="http://www.w3.org/2000/svg">
<path d="M26.25 35.6035H29.75V42.6035H26.25V35.6035ZM35 32.1035H38.5V42.6035H35V32.1035ZM17.5 25.1035H21V42.6035H17.5V25.1035Z" fill="#0090BC"/>
<path d="M43.75 9.35352H38.5V7.60352C38.5 6.67526 38.1313 5.78502 37.4749 5.12864C36.8185 4.47226 35.9283 4.10352 35 4.10352H21C20.0717 4.10352 19.1815 4.47226 18.5251 5.12864C17.8687 5.78502 17.5 6.67526 17.5 7.60352V9.35352H12.25C11.3217 9.35352 10.4315 9.72226 9.77513 10.3786C9.11875 11.035 8.75 11.9253 8.75 12.8535V49.6035C8.75 50.5318 9.11875 51.422 9.77513 52.0784C10.4315 52.7348 11.3217 53.1035 12.25 53.1035H43.75C44.6783 53.1035 45.5685 52.7348 46.2249 52.0784C46.8812 51.422 47.25 50.5318 47.25 49.6035V12.8535C47.25 11.9253 46.8812 11.035 46.2249 10.3786C45.5685 9.72226 44.6783 9.35352 43.75 9.35352ZM21 7.60352H35V14.6035H21V7.60352ZM43.75 49.6035H12.25V12.8535H17.5V18.1035H38.5V12.8535H43.75V49.6035Z" fill="#0090BC"/>
</svg>
