<svg width="56" height="56" viewBox="0 0 56 56" fill="none" xmlns="http://www.w3.org/2000/svg">
<path d="M14 53.6666H7.00004C5.71671 53.6666 4.61849 53.21 3.70537 52.2969C2.79226 51.3838 2.33493 50.2848 2.33337 48.9999V41.9999H7.00004V48.9999H14V53.6666ZM42 53.6666V48.9999H49V41.9999H53.6667V48.9999C53.6667 50.2833 53.2102 51.3823 52.297 52.2969C51.3839 53.2116 50.2849 53.6681 49 53.6666H42ZM28 43.1666C23.3334 43.1666 19.1046 41.786 15.3137 39.0249C11.5228 36.2638 8.7516 32.5888 7.00004 27.9999C8.75004 23.411 11.5213 19.736 15.3137 16.9749C19.1062 14.2138 23.3349 12.8333 28 12.8333C32.6652 12.8333 36.8947 14.2138 40.6887 16.9749C44.4827 19.736 47.2532 23.411 49 27.9999C47.25 32.5888 44.4796 36.2638 40.6887 39.0249C36.8978 41.786 32.6683 43.1666 28 43.1666ZM28 38.4999C31.4223 38.4999 34.5528 37.5666 37.3917 35.6999C40.2306 33.8333 42.4084 31.2666 43.925 27.9999C42.4084 24.7333 40.2306 22.1666 37.3917 20.2999C34.5528 18.4333 31.4223 17.4999 28 17.4999C24.5778 17.4999 21.4473 18.4333 18.6084 20.2999C15.7695 22.1666 13.5917 24.7333 12.075 27.9999C13.5917 31.2666 15.7695 33.8333 18.6084 35.6999C21.4473 37.5666 24.5778 38.4999 28 38.4999ZM28 36.1666C30.2556 36.1666 32.1806 35.3694 33.775 33.7749C35.3695 32.1805 36.1667 30.2555 36.1667 27.9999C36.1667 25.7444 35.3695 23.8194 33.775 22.2249C32.1806 20.6305 30.2556 19.8333 28 19.8333C25.7445 19.8333 23.8195 20.6305 22.225 22.2249C20.6306 23.8194 19.8334 25.7444 19.8334 27.9999C19.8334 30.2555 20.6306 32.1805 22.225 33.7749C23.8195 35.3694 25.7445 36.1666 28 36.1666ZM28 31.4999C27.0278 31.4999 26.201 31.16 25.5197 30.4803C24.8384 29.8005 24.4985 28.9737 24.5 27.9999C24.5016 27.0261 24.8423 26.2001 25.522 25.5219C26.2018 24.8437 27.0278 24.503 28 24.4999C28.9723 24.4968 29.799 24.8375 30.4804 25.5219C31.1617 26.2064 31.5016 27.0324 31.5 27.9999C31.4985 28.9675 31.1586 29.7943 30.4804 30.4803C29.8022 31.1663 28.9754 31.5061 28 31.4999ZM2.33337 13.9999V6.99992C2.33337 5.71659 2.79071 4.61836 3.70537 3.70525C4.62004 2.79214 5.71826 2.33481 7.00004 2.33325H14V6.99992H7.00004V13.9999H2.33337ZM49 13.9999V6.99992H42V2.33325H49C50.2834 2.33325 51.3824 2.79059 52.297 3.70525C53.2117 4.61992 53.6683 5.71814 53.6667 6.99992V13.9999H49Z" fill="#0090BC"/>
</svg>
