<svg width="56" height="56" viewBox="0 0 56 56" fill="none" xmlns="http://www.w3.org/2000/svg">
<path d="M27.5315 4.56871L28.5427 2.2076C28.2231 2.07063 27.8791 2 27.5315 2C27.1838 2 26.8398 2.07063 26.5203 2.2076L27.5315 4.56871ZM27.5315 50.7644L26.2585 52.9921C26.6462 53.2135 27.085 53.33 27.5315 53.33C27.978 53.33 28.4167 53.2135 28.8044 52.9921L27.5315 50.7644ZM26.5203 2.21016L10.1106 9.23961L12.1329 13.9618L28.5427 6.92982L26.5203 2.21016ZM7.00006 13.9593V31.565H12.1329V13.9593H7.00006ZM16.0519 47.1611L26.2585 52.9921L28.8044 48.5367L18.5977 42.7033L16.0519 47.1611ZM28.8044 52.9921L39.0111 47.1611L36.4652 42.7033L26.2585 48.5367L28.8044 52.9921ZM48.0629 31.5624V13.9618H42.93V31.5675L48.0629 31.5624ZM44.9524 9.24218L28.5427 2.21016L26.5203 6.92726L42.93 13.9618L44.9524 9.24218ZM48.0629 13.9618C48.0628 12.9575 47.768 11.9752 47.2151 11.1368C46.6622 10.2983 45.8755 9.63789 44.9524 9.24218L42.93 13.9618H48.0629ZM39.0111 47.1611C41.7614 45.5895 44.0472 43.3213 45.6369 40.5814C47.2265 37.8415 48.0635 34.73 48.0629 31.5624H42.93C42.9298 33.8247 42.3314 36.0467 41.1956 38.0032C40.0599 39.9597 38.427 41.5812 36.4626 42.7033L39.0111 47.1611ZM7.00006 31.5624C6.99992 34.7296 7.83709 37.8405 9.42673 40.5799C11.0164 43.3193 13.302 45.5898 16.0519 47.1611L18.5977 42.7033C16.6346 41.5813 15.0028 39.9605 13.8675 38.005C12.7322 36.0495 12.1338 33.8287 12.1329 31.5675L7.00006 31.5624ZM10.1106 9.23961C9.18706 9.6355 8.40005 10.2963 7.84712 11.1353C7.2942 11.9742 6.99967 12.957 7.00006 13.9618H12.1329L10.1106 9.23961Z" fill="#0090BC"/>
<path d="M35.2308 22.5337L24.9651 32.7994L19.8323 27.6665" stroke="#0090BC" stroke-width="3" stroke-linecap="round" stroke-linejoin="round"/>
</svg>
