<svg width="56" height="56" viewBox="0 0 56 56" fill="none" xmlns="http://www.w3.org/2000/svg">
<path d="M19.832 24H36.168M19.832 30.416H36.168M26.832 24C28.388 24.388 31.5 25.752 31.5 29.832C31.5 36.832 22.164 36.832 22.164 36.832C22.164 36.832 26.832 40.916 33.832 42.668" stroke="#0090BC" stroke-width="3" stroke-linecap="round" stroke-linejoin="round"/>
<path d="M28 54C42 54 52 49.048 52 38.024C52 26.044 46 18.056 34 12.064L38.72 5.992C38.9604 5.59371 39.0909 5.13882 39.0983 4.67366C39.1057 4.20851 38.9896 3.74971 38.762 3.344C38.5343 2.93829 38.2032 2.60017 37.8023 2.36408C37.4015 2.12799 36.9452 2.00237 36.48 2H19.52C19.0558 2.00483 18.601 2.13198 18.2016 2.36865C17.8022 2.60531 17.4723 2.94311 17.2451 3.34798C17.018 3.75284 16.9016 4.21046 16.9077 4.67467C16.9138 5.13888 17.0422 5.59327 17.28 5.992L22 12.104C10 18.136 4 26.124 4 38.104C4 49.048 14 54 28 54Z" stroke="#0090BC" stroke-width="4" stroke-linecap="round" stroke-linejoin="round"/>
</svg>
