<svg width="57" height="56" viewBox="0 0 57 56" fill="none" xmlns="http://www.w3.org/2000/svg">
<path d="M35.5 49V30.3333C35.5 29.7145 35.2542 29.121 34.8166 28.6834C34.379 28.2458 33.7855 28 33.1667 28H23.8333C23.2145 28 22.621 28.2458 22.1834 28.6834C21.7458 29.121 21.5 29.7145 21.5 30.3333V49" stroke="#0090BC" stroke-width="4" stroke-linecap="round" stroke-linejoin="round"/>
<path d="M7.5 23.3333C7.49984 22.6545 7.64778 21.9838 7.9335 21.368C8.21923 20.7522 8.63586 20.2062 9.15433 19.768L25.4877 5.7703C26.33 5.05842 27.3972 4.66785 28.5 4.66785C29.6028 4.66785 30.67 5.05842 31.5123 5.7703L47.8457 19.768C48.3641 20.2062 48.7808 20.7522 49.0665 21.368C49.3522 21.9838 49.5002 22.6545 49.5 23.3333V44.3333C49.5 45.571 49.0083 46.758 48.1332 47.6331C47.258 48.5083 46.071 49 44.8333 49H12.1667C10.929 49 9.742 48.5083 8.86683 47.6331C7.99167 46.758 7.5 45.571 7.5 44.3333V23.3333Z" stroke="#0090BC" stroke-width="4" stroke-linecap="round" stroke-linejoin="round"/>
</svg>
