<svg width="57" height="56" viewBox="0 0 57 56" fill="none" xmlns="http://www.w3.org/2000/svg">
<path d="M51.5534 5.01672L48.7534 5.95006C43.9547 7.61733 38.8304 8.12896 33.7967 7.44339C28.5074 6.62255 23.0936 7.35196 18.2101 9.54339C15.6212 10.6458 13.3492 12.3782 11.6008 14.5829C9.85253 16.7877 8.68346 19.3947 8.20007 22.1667C7.70836 24.8324 7.75866 27.5699 8.34797 30.2158C8.93727 32.8616 10.0535 35.3617 11.6301 37.5667C11.4901 38.0567 11.3501 38.5467 11.2334 39.0367C10.2857 43.0665 9.8158 47.1938 9.83341 51.3334H14.5001C14.7218 47.9452 15.1818 44.5769 15.8767 41.2534C19.1141 43.0015 22.7446 43.8931 26.4234 43.8434C29.8545 43.841 33.2503 43.1508 36.4101 41.8134C54.1667 34.2301 51.8334 9.00672 51.8334 7.95672L51.5534 5.01672ZM34.5901 37.5201C28.5001 40.1101 21.2201 39.6667 17.1367 36.4701C17.8271 34.1625 18.7741 31.9397 19.9601 29.8434C20.8827 28.335 21.9705 26.9341 23.2034 25.6667C24.4636 24.3862 25.883 23.2726 27.4267 22.3534C30.6166 20.446 34.1542 19.1928 37.8334 18.6667V16.3334C33.6 16.1841 29.3922 17.0481 25.5601 18.8534C21.6424 20.7676 18.3193 23.7117 15.9467 27.3701C15.067 28.7676 14.2873 30.2257 13.6134 31.7334C12.532 28.9669 12.2254 25.9578 12.7267 23.0301C13.0552 20.9803 13.9002 19.0479 15.182 17.415C16.4638 15.7822 18.1403 14.5025 20.0534 13.6967C22.8424 12.3905 25.887 11.721 28.9667 11.7367C30.4134 11.7367 31.8367 11.8767 33.3301 11.9934C38.0068 12.5968 42.7552 12.3198 47.3301 11.1767C47.1667 17.6167 46.0001 32.6667 34.5901 37.5201Z" fill="#0090BC"/>
</svg>
