<svg width="57" height="56" viewBox="0 0 57 56" fill="none" xmlns="http://www.w3.org/2000/svg">
<path d="M49.8315 44.4429L46.6509 47.6235L34.4282 35.4009L37.6089 32.2202L49.8315 44.4429ZM23.5532 7.34619C24.6524 7.34619 25.7185 7.66209 26.6323 8.2417L22.6694 12.2065L21.7856 13.0903L25.0747 16.3794L24.3022 17.1528L23.4185 18.0366L28.4556 23.0737L29.3403 23.9575L35.1021 18.1958L34.8325 17.4487C34.5714 16.7257 34.4165 15.9593 34.4165 15.1665C34.4166 11.3536 37.5206 8.25049 41.3335 8.25049C41.8424 8.25051 42.3392 8.3159 42.8218 8.43311L36.9985 14.2563L37.8823 15.1401L41.3589 18.6177L42.2437 19.5015L43.1274 18.6177L48.0659 13.6772C48.1833 14.1602 48.2495 14.6572 48.2495 15.1665C48.2495 18.9794 45.1464 22.0834 41.3335 22.0835C40.5407 22.0835 39.7743 21.9286 39.0513 21.6675L38.3042 21.3979L37.7427 21.9595L12.0728 47.605L8.89404 44.4263L25.3003 28.021L26.1841 27.1362L20.2632 21.2153L19.3794 22.0991L18.606 22.8716L14.0669 18.3325V18.356L12.1138 16.4028L19.4897 9.02783C20.5679 7.95105 22.0295 7.34619 23.5532 7.34619ZM14.0669 20.9438V27.4351L13.6597 27.8423L7.16748 21.3501L7.57471 20.9438H14.0669Z" stroke="#0090BC" stroke-width="2.5"/>
</svg>
