<svg width="56" height="57" viewBox="0 0 56 57" fill="none" xmlns="http://www.w3.org/2000/svg">
<path d="M16.3334 21.6034C17.8805 21.6034 19.3642 20.9888 20.4582 19.8948C21.5522 18.8008 22.1667 17.3171 22.1667 15.77C22.1667 14.2229 21.5522 12.7392 20.4582 11.6452C19.3642 10.5513 17.8805 9.93669 16.3334 9.93669C14.7863 9.93669 13.3026 10.5513 12.2086 11.6452C11.1147 12.7392 10.5001 14.2229 10.5001 15.77C10.5001 17.3171 11.1147 18.8008 12.2086 19.8948C13.3026 20.9888 14.7863 21.6034 16.3334 21.6034ZM16.3334 26.27C14.9545 26.27 13.5892 25.9984 12.3152 25.4708C11.0413 24.9431 9.88381 24.1697 8.90879 23.1946C7.93378 22.2196 7.16035 21.0621 6.63268 19.7882C6.105 18.5143 5.83341 17.1489 5.83341 15.77C5.83341 14.3911 6.105 13.0258 6.63268 11.7518C7.16035 10.4779 7.93378 9.32041 8.90879 8.3454C9.88381 7.37038 11.0413 6.59696 12.3152 6.06928C13.5892 5.54161 14.9545 5.27002 16.3334 5.27002C19.1182 5.27002 21.7889 6.37627 23.758 8.3454C25.7272 10.3145 26.8334 12.9852 26.8334 15.77C26.8334 18.5548 25.7272 21.2255 23.758 23.1946C21.7889 25.1638 19.1182 26.27 16.3334 26.27ZM40.8334 30.9367C42.0711 30.9367 43.2581 30.445 44.1332 29.5698C45.0084 28.6947 45.5001 27.5077 45.5001 26.27C45.5001 25.0323 45.0084 23.8454 44.1332 22.9702C43.2581 22.095 42.0711 21.6034 40.8334 21.6034C39.5957 21.6034 38.4088 22.095 37.5336 22.9702C36.6584 23.8454 36.1667 25.0323 36.1667 26.27C36.1667 27.5077 36.6584 28.6947 37.5336 29.5698C38.4088 30.445 39.5957 30.9367 40.8334 30.9367ZM40.8334 35.6034C38.3581 35.6034 35.9841 34.62 34.2338 32.8697C32.4834 31.1193 31.5001 28.7454 31.5001 26.27C31.5001 23.7947 32.4834 21.4207 34.2338 19.6704C35.9841 17.92 38.3581 16.9367 40.8334 16.9367C43.3088 16.9367 45.6827 17.92 47.4331 19.6704C49.1834 21.4207 50.1668 23.7947 50.1668 26.27C50.1668 28.7454 49.1834 31.1193 47.4331 32.8697C45.6827 34.62 43.3088 35.6034 40.8334 35.6034ZM46.6668 49.6034V48.4367C46.6668 46.8896 46.0522 45.4059 44.9582 44.3119C43.8642 43.2179 42.3805 42.6034 40.8334 42.6034C39.2863 42.6034 37.8026 43.2179 36.7086 44.3119C35.6147 45.4059 35.0001 46.8896 35.0001 48.4367V49.6034H30.3334V48.4367C30.3334 47.0578 30.605 45.6924 31.1327 44.4185C31.6604 43.1446 32.4338 41.9871 33.4088 41.0121C34.3838 40.037 35.5413 39.2636 36.8152 38.736C38.0892 38.2083 39.4545 37.9367 40.8334 37.9367C42.2123 37.9367 43.5777 38.2083 44.8516 38.736C46.1255 39.2636 47.283 40.037 48.258 41.0121C49.2331 41.9871 50.0065 43.1446 50.5342 44.4185C51.0618 45.6924 51.3334 47.0578 51.3334 48.4367V49.6034H46.6668ZM23.3334 49.6034V40.27C23.3334 39.3508 23.1524 38.4405 22.8006 37.5912C22.4488 36.742 21.9332 35.9703 21.2832 35.3203C20.6332 34.6703 19.8615 34.1546 19.0122 33.8029C18.1629 33.4511 17.2527 33.27 16.3334 33.27C15.4142 33.27 14.5039 33.4511 13.6546 33.8029C12.8054 34.1546 12.0337 34.6703 11.3837 35.3203C10.7337 35.9703 10.218 36.742 9.86626 37.5912C9.51448 38.4405 9.33342 39.3508 9.33342 40.27V49.6034H4.66675V40.27C4.66675 37.1758 5.89591 34.2084 8.08384 32.0204C10.2718 29.8325 13.2392 28.6034 16.3334 28.6034C19.4276 28.6034 22.3951 29.8325 24.583 32.0204C26.7709 34.2084 28.0001 37.1758 28.0001 40.27V49.6034H23.3334Z" fill="#0090BC"/>
</svg>
