<svg width="56" height="57" viewBox="0 0 56 57" fill="none" xmlns="http://www.w3.org/2000/svg">
<path d="M25.6667 26.2702L14 14.6035" stroke="#0090BC" stroke-width="3"/>
<path d="M11.6667 18.1037L17.5 12.2703L10.5 8.77034L8.16669 11.1037L11.6667 18.1037ZM46.6084 21.5453C47.7286 20.4261 48.4993 19.0053 48.8266 17.4559C49.1538 15.9065 49.0236 14.2954 48.4517 12.8187L45.1337 16.1367H40.467V11.47L43.785 8.15201C42.3082 7.5788 40.6966 7.44748 39.1465 7.77404C37.5964 8.10061 36.1747 8.87096 35.0547 9.99123C33.9346 11.1115 33.1646 12.5334 32.8384 14.0835C32.5121 15.6337 32.6438 17.2453 33.2174 18.722L18.1207 33.821C16.644 33.2475 15.0324 33.1158 13.4822 33.442C11.932 33.7682 10.5102 34.5383 9.38992 35.6583C8.26964 36.7783 7.49929 38.2 7.17273 39.7501C6.84616 41.3002 6.97748 42.9119 7.55069 44.3887L10.8664 41.0707H15.533V45.7373L12.215 49.0553C13.6914 49.6285 15.3027 49.7601 16.8525 49.4339C18.4024 49.1077 19.8239 48.3379 20.9441 47.2183C22.0642 46.0986 22.8347 44.6774 23.1615 43.1277C23.4884 41.578 23.3576 39.9667 22.785 38.49L37.8864 23.3887C39.3624 23.9596 40.9726 24.0893 42.5211 23.7621C44.0695 23.4348 45.4895 22.6647 46.6084 21.5453Z" stroke="#0090BC" stroke-width="3.5" stroke-linejoin="round"/>
<path d="M27.5264 34.4369L40.6024 47.5129C40.8949 47.806 41.2425 48.0386 41.625 48.1973C42.0076 48.3559 42.4177 48.4376 42.8319 48.4376C43.246 48.4376 43.6561 48.3559 44.0387 48.1973C44.4213 48.0386 44.7688 47.806 45.0614 47.5129L46.9094 45.6649C47.2025 45.3723 47.4351 45.0248 47.5937 44.6422C47.7524 44.2597 47.8341 43.8496 47.8341 43.4354C47.8341 43.0212 47.7524 42.6111 47.5937 42.2285C47.4351 41.846 47.2025 41.4985 46.9094 41.2059L33.8334 28.1299" stroke="#0090BC" stroke-width="3.5" stroke-linejoin="round"/>
</svg>
