<svg width="56" height="57" viewBox="0 0 56 57" fill="none" xmlns="http://www.w3.org/2000/svg">
<path d="M4.66675 47.2703V9.93701H51.3334V23.937H30.3334V14.6037H9.33341V42.6037H23.3334V47.2703H4.66675ZM9.33341 42.6037V21.6037V23.937V14.6037V42.6037ZM50.4001 51.937L44.1001 45.637C43.2445 46.1426 42.3501 46.5416 41.4167 46.834C40.4834 47.1265 39.5112 47.2719 38.5001 47.2703C35.5834 47.2703 33.1046 46.2499 31.0637 44.209C29.0229 42.1681 28.0016 39.6886 28.0001 36.7703C27.9985 33.8521 29.0197 31.3733 31.0637 29.334C33.1077 27.2947 35.5865 26.2735 38.5001 26.2703C41.4136 26.2672 43.8932 27.2885 45.9387 29.334C47.9843 31.3796 49.0047 33.8583 49.0001 36.7703C49.0001 37.7815 48.8546 38.7537 48.5637 39.687C48.2729 40.6203 47.8739 41.5148 47.3667 42.3703L53.6667 48.6703L50.4001 51.937ZM38.5001 42.6037C40.1334 42.6037 41.514 42.0398 42.6417 40.912C43.7695 39.7842 44.3334 38.4037 44.3334 36.7703C44.3334 35.137 43.7695 33.7565 42.6417 32.6287C41.514 31.5009 40.1334 30.937 38.5001 30.937C36.8667 30.937 35.4862 31.5009 34.3584 32.6287C33.2306 33.7565 32.6667 35.137 32.6667 36.7703C32.6667 38.4037 33.2306 39.7842 34.3584 40.912C35.4862 42.0398 36.8667 42.6037 38.5001 42.6037Z" fill="#0090BC"/>
</svg>
