<svg width="403" height="401" viewBox="0 0 403 401" fill="none" xmlns="http://www.w3.org/2000/svg">
<path d="M301.746 0H0V388.681H301.746V0Z" fill="white"/>
<path d="M111.197 259.46C115.661 248.683 110.543 236.329 99.7671 231.865C88.9907 227.401 76.6361 232.519 72.1723 243.295C67.7085 254.071 72.8258 266.426 83.6022 270.89C94.3786 275.354 106.733 270.236 111.197 259.46Z" fill="#B979A9"/>
<path d="M79.2679 249.889C81.8182 253.398 84.3685 256.906 86.9183 260.415C87.814 261.647 88.9496 262.495 90.5453 262.495C92.0621 262.495 93.3782 261.68 94.1723 260.415C98.9888 252.739 103.805 245.063 108.622 237.388C109.792 235.524 109.078 232.678 107.115 231.641C105.049 230.55 102.617 231.158 101.368 233.148C96.5514 240.824 91.7348 248.5 86.9183 256.175C89.3361 256.175 91.754 256.175 94.1719 256.175C91.6216 252.666 89.0713 249.158 86.5215 245.649C85.8598 244.739 85.1344 244.028 84.0113 243.719C83.0059 243.442 81.6671 243.567 80.7749 244.142C79.0183 245.275 77.8862 247.989 79.2679 249.889Z" fill="#502445"/>
<path d="M74.9503 236.383C75.8884 235.117 77.09 234.093 78.4641 233.328C79.2514 232.889 78.5461 231.679 77.7574 232.118C76.1639 233.006 74.825 234.213 73.7412 235.677C73.2048 236.402 74.4198 237.1 74.9503 236.383Z" fill="#502445"/>
<path d="M79.8108 232.182C80.5795 231.876 81.3357 231.542 82.0771 231.175C82.8845 230.775 82.1761 229.567 81.3704 229.966C80.7373 230.28 80.0948 230.571 79.4385 230.832C79.0877 230.972 78.8416 231.299 78.9495 231.693C79.0413 232.027 79.4577 232.323 79.8108 232.182Z" fill="#502445"/>
<path d="M78.0011 271.372C80.2197 272.987 82.7129 274.181 85.3559 274.916C86.2253 275.157 86.5963 273.807 85.7282 273.566C83.1926 272.861 80.835 271.711 78.7078 270.163C77.9779 269.632 77.2788 270.846 78.0011 271.372Z" fill="#502445"/>
<path d="M88.3512 275.18C90.9804 275.374 93.6078 275.223 96.2022 274.759C97.0876 274.6 96.7127 273.251 95.8299 273.409C93.3599 273.85 90.8528 273.964 88.3512 273.78C87.4523 273.714 87.4568 275.115 88.3512 275.18Z" fill="#502445"/>
<path d="M112.294 243.852C112.388 244.039 112.481 244.226 112.574 244.412C112.738 244.741 113.229 244.859 113.532 244.663C113.868 244.447 113.959 244.057 113.783 243.706C113.69 243.519 113.596 243.333 113.503 243.146C113.339 242.818 112.849 242.699 112.545 242.895C112.21 243.111 112.119 243.501 112.294 243.852Z" fill="#502445"/>
<path d="M77.0128 244.654C75.6579 246.227 76.1737 248.197 76.8804 249.937C77.2148 250.761 78.5697 250.401 78.2304 249.565C77.7578 248.401 77.0405 246.76 78.0026 245.643C78.5885 244.964 77.6022 243.97 77.0128 244.654Z" fill="#502445"/>
<path d="M108.441 230.503C109.242 231.208 109.724 232.092 109.898 233.144C110.045 234.03 111.394 233.654 111.248 232.771C111.039 231.508 110.392 230.358 109.431 229.513C108.756 228.92 107.763 229.906 108.441 230.503Z" fill="#502445"/>
<path d="M111.198 332.724C115.662 321.947 110.544 309.593 99.768 305.129C88.9917 300.665 76.6371 305.782 72.1733 316.559C67.7094 327.335 72.8268 339.69 83.6032 344.153C94.3795 348.617 106.734 343.5 111.198 332.724Z" fill="#B979A9"/>
<path d="M79.2674 323.152C81.8177 326.66 84.368 330.169 86.9178 333.678C87.8135 334.91 88.9491 335.758 90.5448 335.758C92.0616 335.758 93.3777 334.943 94.1718 333.678C98.9883 326.002 103.805 318.326 108.621 310.651C109.791 308.787 109.077 305.941 107.114 304.904C105.048 303.812 102.616 304.421 101.367 306.411C96.5509 314.086 91.7343 321.762 86.9178 329.438C89.3356 329.438 91.7535 329.438 94.1714 329.438C91.6211 325.929 89.0708 322.42 86.521 318.912C85.8593 318.001 85.1339 317.291 84.0108 316.982C83.0054 316.705 81.6666 316.83 80.7744 317.405C79.0178 318.537 77.8857 321.251 79.2674 323.152Z" fill="#502445"/>
<path d="M74.9498 309.647C75.8879 308.38 77.0895 307.356 78.4636 306.591C79.251 306.153 78.5456 304.943 77.7569 305.382C76.1634 306.269 74.8245 307.477 73.7407 308.94C73.2043 309.665 74.4193 310.363 74.9498 309.647Z" fill="#502445"/>
<path d="M79.8104 305.444C80.579 305.138 81.3352 304.805 82.0766 304.438C82.8841 304.038 82.1756 302.83 81.3699 303.229C80.7368 303.542 80.0944 303.832 79.4381 304.094C79.0872 304.234 78.8411 304.562 78.949 304.955C79.0408 305.289 79.4572 305.585 79.8104 305.444Z" fill="#502445"/>
<path d="M78.0006 344.634C80.2192 346.249 82.7124 347.444 85.3554 348.178C86.2248 348.42 86.5958 347.07 85.7277 346.828C83.1921 346.124 80.8345 344.974 78.7073 343.426C77.9774 342.895 77.2783 344.109 78.0006 344.634Z" fill="#502445"/>
<path d="M88.3507 348.443C90.9799 348.637 93.6073 348.486 96.2017 348.022C97.0871 347.863 96.7122 346.514 95.8294 346.672C93.3594 347.113 90.8523 347.227 88.3507 347.042C87.4518 346.977 87.4563 348.377 88.3507 348.443Z" fill="#502445"/>
<path d="M112.294 317.115C112.387 317.302 112.481 317.489 112.574 317.675C112.738 318.003 113.228 318.122 113.532 317.926C113.867 317.71 113.958 317.319 113.783 316.968C113.689 316.782 113.596 316.595 113.503 316.408C113.339 316.08 112.848 315.962 112.545 316.157C112.21 316.374 112.119 316.764 112.294 317.115Z" fill="#502445"/>
<path d="M77.0123 317.916C75.6574 319.489 76.1733 321.46 76.8799 323.201C77.2143 324.025 78.5692 323.664 78.2299 322.828C77.7573 321.664 77.04 320.023 78.0021 318.907C78.588 318.227 77.6018 317.232 77.0123 317.916Z" fill="#502445"/>
<path d="M108.44 303.765C109.242 304.47 109.723 305.354 109.897 306.406C110.044 307.293 111.394 306.917 111.247 306.034C111.038 304.77 110.391 303.621 109.431 302.776C108.756 302.183 107.762 303.169 108.44 303.765Z" fill="#502445"/>
<path d="M209.104 262.619H133.268C132.075 262.619 131.108 261.652 131.108 260.46C131.108 259.267 132.075 258.3 133.268 258.3H209.104C210.296 258.3 211.264 259.267 211.264 260.46C211.264 261.652 210.296 262.619 209.104 262.619Z" fill="#502445"/>
<path d="M187.37 249.794H133.489C132.174 249.794 131.108 248.728 131.108 247.413V247.139C131.108 245.824 132.174 244.758 133.489 244.758H187.37C188.685 244.758 189.751 245.824 189.751 247.139V247.413C189.751 248.728 188.685 249.794 187.37 249.794Z" fill="#502445"/>
<path d="M209.137 337.155H133.233C132.059 337.155 131.107 336.203 131.107 335.029C131.107 333.855 132.059 332.904 133.233 332.904H209.137C210.311 332.904 211.263 333.855 211.263 335.029C211.263 336.203 210.311 337.155 209.137 337.155Z" fill="#502445"/>
<path d="M187.37 324.398H133.489C132.174 324.398 131.108 323.332 131.108 322.017V321.743C131.108 320.428 132.174 319.362 133.489 319.362H187.37C188.685 319.362 189.751 320.428 189.751 321.743V322.017C189.751 323.332 188.685 324.398 187.37 324.398Z" fill="#502445"/>
<path d="M91.6416 37.5495L160.078 114.082H232.957H255.61L182.85 38.3003L91.6416 37.5495Z" fill="#FF8D67"/>
<path d="M37.3096 114.082L91.6419 37.5495L160.079 114.082H37.3096Z" fill="#F4C198"/>
<path d="M254.556 114.082H153.026V179.656H254.556V114.082Z" fill="#F4CEA8"/>
<path d="M153.027 114.082H43.7056L43.2954 179.656H153.027V114.082Z" fill="#F4C198"/>
<path d="M95.9699 77.5945C99.3977 77.5945 102.177 74.4326 102.177 70.5322C102.177 66.6318 99.3977 63.4699 95.9699 63.4699C92.542 63.4699 89.7632 66.6318 89.7632 70.5322C89.7632 74.4326 92.542 77.5945 95.9699 77.5945Z" fill="#FFE2C8"/>
<path d="M95.9698 78.1905C92.222 78.1905 89.1729 74.7548 89.1729 70.5317C89.1729 66.3099 92.222 62.8742 95.9698 62.8742C99.7177 62.8742 102.767 66.3099 102.767 70.5317C102.767 74.7552 99.7172 78.1905 95.9698 78.1905ZM95.9698 64.0664C92.873 64.0664 90.3534 66.9662 90.3534 70.5317C90.3534 74.0972 92.873 76.9983 95.9698 76.9983C99.0667 76.9983 101.586 74.0972 101.586 70.5317C101.586 66.9662 99.0663 64.0664 95.9698 64.0664Z" fill="#FFF0E4"/>
<path d="M102.176 69.9362H89.7627V71.1284H102.176V69.9362Z" fill="#FFF0E4"/>
<path d="M96.5599 63.4704H95.3789V77.5945H96.5599V63.4704Z" fill="#FFF0E4"/>
<path d="M37.3096 114.082H43.7535L95.9698 42.3892L91.6419 37.5495L37.3096 114.082Z" fill="#E0A477"/>
<path d="M75.9512 122.976L111.72 75.9956L156.773 122.976H75.9512Z" fill="#F9DDC5"/>
<path d="M153.026 122.976H80.4355L80.1631 179.656H153.026V122.976Z" fill="#F9DDC5"/>
<path d="M75.9512 122.976H80.1935L114.569 78.9663L111.72 75.9956L75.9512 122.976Z" fill="#E0A477"/>
<path d="M111.72 75.9956H130.625L170.004 122.976H153.12L111.72 75.9956Z" fill="#FF8D67"/>
<path d="M263.981 122.976H163.842L156.773 111.387L255.611 114.082L263.981 122.976Z" fill="#FF8D67"/>
<path d="M107.988 163.161H90.0278V136.397C90.0278 131.559 93.9495 127.638 98.787 127.638H99.2289C104.066 127.638 107.988 131.559 107.988 136.397V163.161Z" fill="#F4C198"/>
<path d="M108.871 164.051H89.1475V136.702C89.1475 131.214 93.5712 126.748 99.0092 126.748C104.446 126.748 108.871 131.213 108.871 136.702V164.051ZM90.9104 162.272H107.108V136.702C107.108 132.195 103.475 128.527 99.0097 128.527C94.5436 128.527 90.9104 132.195 90.9104 136.702V162.272Z" fill="#FFF0E4"/>
<path d="M107.989 141.121H90.0283V142.455H107.989V141.121Z" fill="#FFF0E4"/>
<path d="M107.989 152.011H90.0283V153.344H107.989V152.011Z" fill="#FFF0E4"/>
<path d="M99.6687 127.638H98.3477V163.162H99.6687V127.638Z" fill="#FFF0E4"/>
<path d="M186.957 161.11H168.742V138.572C168.742 133.666 172.719 129.689 177.625 129.689H178.073C182.979 129.689 186.956 133.666 186.956 138.572L186.957 161.11Z" fill="#F4C198"/>
<path d="M187.79 161.953H167.906V138.882C167.906 133.348 172.367 128.847 177.849 128.847C183.33 128.847 187.79 133.348 187.79 138.882V161.953ZM169.576 160.269H186.121V138.882C186.121 134.277 182.41 130.53 177.849 130.53C173.287 130.53 169.576 134.277 169.576 138.882V160.269Z" fill="#FFF0E4"/>
<path d="M186.957 141.575H168.742V142.838H186.957V141.575Z" fill="#FFF0E4"/>
<path d="M186.957 151.206H168.742V152.469H186.957V151.206Z" fill="#FFF0E4"/>
<path d="M178.477 129.689H177.225V161.111H178.477V129.689Z" fill="#FFF0E4"/>
<path d="M220.99 161.11H202.775V138.572C202.775 133.666 206.752 129.689 211.658 129.689H212.106C217.012 129.689 220.989 133.666 220.989 138.572L220.99 161.11Z" fill="#F4C198"/>
<path d="M221.824 161.953H201.939V138.882C201.939 133.348 206.399 128.847 211.881 128.847C217.363 128.847 221.824 133.348 221.824 138.882V161.953ZM203.608 160.269H220.154V138.882C220.154 134.277 216.443 130.53 211.881 130.53C207.32 130.53 203.608 134.277 203.608 138.882V160.269Z" fill="#FFF0E4"/>
<path d="M220.99 141.575H202.775V142.838H220.99V141.575Z" fill="#FFF0E4"/>
<path d="M220.99 151.206H202.775V152.469H220.99V151.206Z" fill="#FFF0E4"/>
<path d="M212.507 129.689H211.255V161.111H212.507V129.689Z" fill="#FFF0E4"/>
<path d="M143.897 178.358H118.56V130.525C118.56 124.911 124.232 120.36 131.229 120.36C138.226 120.36 143.898 124.911 143.898 130.525V178.358H143.897Z" fill="#F4C198"/>
<path d="M145.234 179.708H117.223V133.006C117.223 125.289 123.443 119.009 131.089 119.009H131.367C139.013 119.009 145.233 125.289 145.233 133.006L145.234 179.708ZM119.896 177.008H142.56V133.006C142.56 126.777 137.54 121.709 131.368 121.709H131.089C124.918 121.709 119.896 126.777 119.896 133.006V177.008Z" fill="#FFF0E4"/>
<path d="M142.311 135.199H120.159V176.765H142.311V135.199Z" fill="#FFF0E4"/>
<path d="M142.64 133.494H119.766V134.907H142.64V133.494Z" fill="#FFF0E4"/>
<path d="M131.313 134.885L123.139 124.024L124.253 123.169L131.144 132.327L136.607 122.626L137.824 123.323L131.313 134.885Z" fill="#FFF0E4"/>
<path d="M121.993 152.759C121.993 152.058 122.556 151.489 123.25 151.489C123.945 151.489 124.508 152.058 124.508 152.759C124.508 153.46 123.945 154.028 123.25 154.028C122.556 154.028 121.993 153.46 121.993 152.759Z" fill="#FFE3C8"/>
<path d="M69.08 163.161H52.2759V135.833C52.2759 131.307 55.9448 127.638 60.4711 127.638H60.8844C65.4107 127.638 69.0796 131.307 69.0796 135.833L69.08 163.161Z" fill="#E0A477"/>
<path d="M69.931 164.021H51.4229V136.119C51.4229 130.967 55.5742 126.778 60.6769 126.778C65.7797 126.778 69.931 130.967 69.931 136.119V164.021ZM53.1273 162.302H68.227V136.119C68.227 131.917 64.8398 128.497 60.6774 128.497C56.5149 128.497 53.1278 131.917 53.1278 136.119L53.1273 162.302Z" fill="#FFF0E4"/>
<path d="M69.08 141.143H52.2764V142.433H69.08V141.143Z" fill="#FFF0E4"/>
<path d="M69.08 152.033H52.2764V153.323H69.08V152.033Z" fill="#FFF0E4"/>
<path d="M61.3159 127.638H60.0381V163.162H61.3159V127.638Z" fill="#FFF0E4"/>
<path d="M368.73 297.358C368.73 297.358 368.89 303.675 367.955 308.345C367.02 313.016 352.883 303.141 352.883 303.141L368.73 297.358Z" fill="#FD8B67"/>
<path d="M326.789 241.344C326.789 241.344 322.913 274.278 313.131 274.886C303.35 275.494 293.015 256.985 293.015 256.985L305.243 257.168L316.181 232.586L326.789 241.344Z" fill="#FDCDBD"/>
<path d="M339.186 294.562C339.186 294.562 357.363 396.147 358.857 398.46C360.35 400.773 392.142 400.579 395.008 398.46C397.873 396.338 379.432 390.171 374.881 380.724C374.351 379.626 373.884 377.633 373.474 374.971C372.248 367.051 371.515 353.205 371.075 339.294C371.074 339.292 371.074 339.292 371.074 339.292C370.392 317.696 364.224 291.428 364.224 291.428L339.186 294.562Z" fill="#FDCDBD"/>
<path d="M342.838 294.562C342.838 294.562 335.816 396.147 334.577 398.46C333.337 400.773 301.524 400.579 298.426 398.46C295.327 396.338 313.091 390.17 316.605 380.724C317.014 379.626 317.262 377.633 317.38 374.971C317.736 367.051 316.949 353.205 315.861 339.294C315.861 339.292 315.861 339.292 315.861 339.292C314.172 317.696 318.478 290.939 318.478 290.939L342.838 294.562Z" fill="#FDCDBD"/>
<path d="M313.055 378.615C313.055 378.615 332.492 385.889 342.2 382.419L342.838 314.82L345.747 337.354L348.59 359.392L351.39 381.064L351.47 381.695C361.178 385.165 374.773 378.768 374.773 378.768L368.742 271.757L317.765 276.104L316.33 307.307C316.33 307.307 316.33 307.307 316.33 307.31L313.653 365.618L313.055 378.615Z" fill="#370C2C"/>
<path d="M306.488 390.537C309.755 388.723 314.014 386.011 315.234 382.652C316.861 378.171 315.327 376.56 318.177 376.726C323.135 377.015 322.593 386.268 321.508 388.87C320.424 391.472 301.015 397.633 301.346 394.769C301.511 393.342 303.959 391.941 306.488 390.537Z" fill="#4AB0A2"/>
<path d="M336.212 217.249C336.693 216.605 337.428 216.201 338.23 216.144C340.783 215.96 346.661 215.647 350.951 216.27C364.189 218.19 342.408 226.39 342.408 226.39C342.408 226.39 336.595 225.041 336.182 224.944C335.768 224.847 331.327 223.787 331.327 223.787L336.212 217.249Z" fill="#FDCDBD"/>
<path d="M346.377 225.475C344.003 225.475 341.875 223.924 341.375 221.67L338.011 206.49C337.439 203.91 339.217 201.386 341.982 200.853C344.747 200.318 347.452 201.978 348.024 204.558L351.389 219.738C351.961 222.318 350.183 224.842 347.417 225.376C347.068 225.443 346.72 225.475 346.377 225.475Z" fill="#FDCDBD"/>
<path d="M337.885 192.17C337.885 192.17 329.038 205.167 332.689 208.08C336.34 210.993 345.145 211.929 349.618 207.945C354.09 203.961 349.843 184.406 337.885 192.17Z" fill="#FDCDBD"/>
<path d="M337.92 216.166C337.92 216.166 337.314 224.076 343.653 224.393C349.645 224.693 352.218 216.429 352.218 216.429C352.218 216.429 368.274 216.844 368.739 239.83C369.203 262.817 372.473 287.126 372.473 287.126C372.473 287.126 350 295.665 314.832 288.36C314.832 288.36 317.555 258.43 320.447 241.854C320.447 241.854 313.052 239.7 311.925 234.629C311.925 234.629 316.297 219.886 337.92 216.166Z" fill="#502445"/>
<path d="M346.654 187.096C346.654 187.096 343.413 185.005 340.24 185.745C337.066 186.485 340.747 190.053 340.747 190.053C340.747 190.053 333.291 189.392 333.686 192.088C334.082 194.784 343.873 195.394 343.873 195.394C343.873 195.394 343.601 197.222 345.574 198.58C347.547 199.938 349.295 198.972 349.295 198.972C349.295 198.972 347.905 200.234 349.697 202.365C349.697 202.365 345.21 206.624 347.854 209.161C350.499 211.698 357.272 210.347 359.968 204.982C361.926 201.085 359.442 198.223 359.442 198.223C359.442 198.223 362.103 195.056 358.68 191.873C356.042 189.42 352.569 190.241 352.569 190.241C352.569 190.241 352.123 184.901 346.654 187.096Z" fill="#384955"/>
<path d="M343.16 210.121C341.2 210.22 339.327 210.073 337.403 209.7C336.932 209.609 336.867 210.355 337.336 210.446C339.32 210.83 341.271 210.96 343.286 210.859C343.766 210.835 343.636 210.098 343.16 210.121Z" fill="#FBB89E"/>
<path d="M337.087 200.557C337.018 201.301 337.293 201.692 337.838 202.211C338.183 202.54 338.766 202.071 338.418 201.739C338.051 201.478 337.856 201.106 337.832 200.624C337.877 200.145 337.131 200.076 337.087 200.557Z" fill="#FBB89E"/>
<path d="M342.951 198.278C343.267 198.688 343.582 199.098 343.897 199.509C344.033 199.972 344.736 199.715 344.601 199.254C344.375 198.49 344.099 198.127 343.43 197.703C343.029 197.448 342.545 198.02 342.951 198.278Z" fill="#E08D77"/>
<path d="M337.267 196C337.76 196.159 338.253 196.317 338.746 196.475C339.122 196.779 339.553 196.167 339.18 195.866C338.56 195.365 338.127 195.223 337.335 195.255C336.86 195.274 336.787 196.02 337.267 196Z" fill="#E08D77"/>
<path d="M345.772 202.901C345.772 202.901 348.728 201.547 349.545 202.776C350.363 204.005 348.67 206.246 347.259 206.016C345.848 205.786 345.506 203.611 345.639 203.256L345.772 202.901Z" fill="#FDCDBD"/>
<path d="M352.065 190.413C354.819 189.888 357.877 189.416 359.555 192.136C360.383 193.478 361.096 196.083 359.142 197.162C358.329 197.611 357.077 197.642 356.17 197.747C355.931 197.774 355.994 198.143 356.233 198.116C357.455 197.974 359.131 197.935 360.022 196.946C360.998 195.861 360.915 193.791 360.431 192.502C359.141 189.069 354.874 189.497 352.001 190.044C351.766 190.089 351.827 190.458 352.065 190.413Z" fill="#384955"/>
<path d="M347.022 187.434C344.963 186.21 340.173 183.696 338.24 186.495C336.465 189.065 340.104 191.169 341.963 192.027C342.182 192.128 342.312 191.778 342.094 191.677C341.264 191.294 340.339 190.905 339.632 190.312C337.9 188.859 338.331 185.846 341.022 185.701C342.983 185.596 345.187 186.776 346.802 187.736C347.008 187.858 347.229 187.556 347.022 187.434Z" fill="#384955"/>
<path d="M361.021 197.177C359.757 198.17 358.635 198.157 357.163 198.155C356.924 198.155 356.887 198.528 357.129 198.528C358.667 198.53 360.024 198.437 361.257 197.467C361.447 197.318 361.21 197.028 361.021 197.177Z" fill="#384955"/>
<path d="M361.701 200.108C360.602 198.529 359.138 197.629 357.256 197.28C357.019 197.236 356.986 197.609 357.222 197.653C359.021 197.987 360.377 198.859 361.411 200.344C361.548 200.542 361.838 200.305 361.701 200.108Z" fill="#384955"/>
<path d="M345.557 205.736C347.787 208.736 353.284 201.884 348.166 202.138C347.686 202.162 347.816 202.9 348.292 202.876C348.524 203.483 348.756 204.091 348.987 204.698C348.617 205.174 348.146 205.421 347.574 205.436C347.24 205.497 346.417 205.64 346.138 205.264C345.849 204.876 345.27 205.351 345.557 205.736Z" fill="#FBB89E"/>
<path d="M339.85 215.741C339.978 216.496 340.088 217.252 340.18 218.012C340.21 218.247 340.585 218.25 340.554 218.012C340.452 217.219 340.338 216.431 340.211 215.642C340.173 215.405 339.813 215.506 339.85 215.741Z" fill="#FBB89E"/>
<path d="M338.349 198.859C337.756 197.622 336.964 197.754 336.195 197.908C335.962 197.955 335.752 197.836 335.917 197.663C336.895 196.631 338.269 197.821 338.699 198.738C338.801 198.954 338.449 199.073 338.349 198.859Z" fill="#45403E"/>
<path d="M337.864 198.67C337.695 199.016 337.283 199.161 336.943 198.996C336.603 198.83 336.465 198.415 336.633 198.069C336.802 197.724 337.214 197.579 337.554 197.745C337.894 197.91 338.033 198.325 337.864 198.67Z" fill="#45403E"/>
<path d="M343.31 201.909C342.895 200.602 342.093 200.623 341.31 200.669C341.072 200.683 340.881 200.536 341.069 200.387C342.181 199.502 343.376 200.87 343.675 201.839C343.745 202.067 343.38 202.135 343.31 201.909Z" fill="#45403E"/>
<path d="M342.86 201.656C342.645 201.975 342.216 202.061 341.902 201.849C341.589 201.638 341.509 201.208 341.725 200.889C341.94 200.571 342.368 200.484 342.682 200.696C342.995 200.907 343.075 201.337 342.86 201.656Z" fill="#45403E"/>
<path d="M386.501 390.537C383.235 388.723 378.975 386.011 377.756 382.652C376.129 378.171 377.662 376.56 374.812 376.726C369.854 377.015 370.396 386.268 371.481 388.87C372.565 391.472 391.975 397.633 391.643 394.769C391.478 393.342 389.031 391.941 386.501 390.537Z" fill="#4AB0A2"/>
<path d="M372.54 386.508C372.54 386.508 369.571 386.026 367.298 388.532C365.026 391.038 358.106 384.085 356.04 385.393C353.975 386.701 354.853 397.158 358.158 399.085C361.463 401.013 395.444 401.536 395.444 398.066C395.444 394.596 384.421 389.802 384.421 389.802L372.54 386.508Z" fill="#4C97AD"/>
<path d="M380.273 386.071C377.897 387.936 376.15 390.238 375.156 393.104C374.843 394.009 373.396 393.619 373.713 392.706C374.791 389.596 376.623 387.046 379.215 385.013C379.964 384.425 381.03 385.477 380.273 386.071Z" fill="white"/>
<path d="M379.245 393.529C380.11 391.09 381.696 389.294 383.978 388.079C384.828 387.627 385.585 388.918 384.733 389.371C382.797 390.402 381.429 391.838 380.687 393.926C380.368 394.828 378.921 394.44 379.245 393.529Z" fill="white"/>
<path d="M383.194 396.626C384.528 394.386 387.713 392.777 390.183 392.263C391.123 392.068 391.525 393.51 390.581 393.706C388.537 394.131 385.606 395.502 384.486 397.382C383.994 398.208 382.699 397.456 383.194 396.626Z" fill="white"/>
<path d="M320.449 386.508C320.449 386.508 323.419 386.026 325.691 388.532C327.963 391.038 334.883 384.085 336.949 385.393C339.014 386.701 338.137 397.158 334.831 399.085C331.526 401.013 297.545 401.536 297.545 398.066C297.545 394.596 308.568 389.802 308.568 389.802L320.449 386.508Z" fill="#4C97AD"/>
<path d="M313.651 365.619C329.259 368.053 322.471 354.882 322.471 335.542C322.475 315.044 316.502 307.52 316.328 307.31L313.651 365.619Z" fill="#502445"/>
<path d="M345.746 337.354L348.59 359.392L351.39 381.064C353.744 379.891 357.541 377.272 359.909 371.914C363.536 363.703 353.143 360.566 351.47 350.905C350.115 343.07 346.909 338.716 345.746 337.354Z" fill="#502445"/>
<path d="M340.003 295.605C339.831 297.736 339.449 299.976 339.477 302.115C339.512 304.703 340.983 306.094 342.561 307.994C342.746 308.217 342.428 308.539 342.241 308.314C341.087 306.925 339.311 305.434 339.007 303.563C338.609 301.113 339.351 298.069 339.55 295.605C339.574 295.317 340.027 295.315 340.003 295.605Z" fill="#27353E"/>
<path d="M355.708 293.886C357.466 297.648 363.321 299.265 366.971 300.311C367.251 300.391 367.132 300.828 366.851 300.748C363.022 299.65 357.158 298.053 355.317 294.115C355.194 293.853 355.584 293.623 355.708 293.886Z" fill="#27353E"/>
<path d="M331.376 294.245C327.556 296.724 323.553 298.76 318.947 299.11C318.656 299.132 318.658 298.679 318.947 298.657C323.472 298.313 327.402 296.285 331.148 293.853C331.393 293.695 331.62 294.087 331.376 294.245Z" fill="#27353E"/>
<path d="M311.84 386.072C314.216 387.936 315.963 390.238 316.957 393.104C317.27 394.009 318.716 393.619 318.4 392.706C317.322 389.596 315.489 387.046 312.898 385.013C312.149 384.425 311.082 385.477 311.84 386.072Z" fill="white"/>
<path d="M313.007 393.98C312.141 391.542 310.556 389.745 308.274 388.53C307.424 388.078 306.667 389.369 307.519 389.822C309.455 390.853 310.823 392.289 311.564 394.378C311.884 395.279 313.331 394.891 313.007 393.98Z" fill="white"/>
<path d="M309.325 395.252C307.991 393.012 304.806 391.402 302.336 390.889C301.396 390.693 300.994 392.136 301.938 392.332C303.982 392.757 306.913 394.128 308.033 396.007C308.525 396.834 309.819 396.082 309.325 395.252Z" fill="white"/>
<path d="M335.276 203.469C336.618 204.504 338.185 204.979 339.876 204.894C340.19 204.878 340.105 204.394 339.793 204.409C338.238 204.488 336.795 204.021 335.565 203.071C335.314 202.877 335.026 203.276 335.276 203.469Z" fill="#45403E"/>
<path d="M402.33 317.466C403.692 315.146 402.91 312.134 400.591 310.77L259.139 227.645C256.819 226.282 253.806 227.064 252.443 229.384C251.08 231.703 251.863 234.716 254.182 236.079L395.634 319.205C397.953 320.568 400.967 319.785 402.33 317.466Z" fill="#384955"/>
<g opacity="0.2">
<path d="M242.007 242.867C268.273 216.601 268.273 174.016 242.007 147.75C215.741 121.484 173.156 121.484 146.89 147.75C120.624 174.016 120.624 216.601 146.89 242.867C173.156 269.133 215.741 269.133 242.007 242.867Z" fill="white"/>
</g>
<path d="M159.908 257.096C143.61 247.517 132.016 232.166 127.264 213.868C122.512 195.571 125.17 176.518 134.747 160.219C154.52 126.574 197.978 115.286 231.624 135.059C247.923 144.636 259.516 159.988 264.268 178.286C269.02 196.583 266.363 215.636 256.784 231.935C247.207 248.233 231.855 259.826 213.557 264.579C209.649 265.594 205.707 266.271 201.763 266.615C187.247 267.88 172.725 264.628 159.908 257.096ZM228.061 141.121C197.759 123.314 158.618 133.479 140.81 163.782C123.002 194.085 133.168 233.226 163.47 251.034C178.15 259.66 195.309 262.054 211.79 257.774C228.269 253.494 242.095 243.052 250.722 228.373C268.529 198.07 258.364 158.929 228.061 141.121Z" fill="#384955"/>
<path d="M254.076 194.084C252.782 205.191 249.076 215.938 243.233 225.473C242.13 227.274 239.116 225.877 240.233 224.053C245.945 214.732 249.547 204.342 250.812 193.484C251.059 191.363 254.323 191.967 254.076 194.084Z" fill="#51C6D4"/>
<path d="M238.83 230.737C237.182 233.169 234.834 234.976 232.105 236.043C230.112 236.823 228.96 233.709 230.948 232.932C233.18 232.06 234.949 230.581 236.289 228.603C237.488 226.835 240.019 228.984 238.83 230.737Z" fill="#51C6D4"/>
<path d="M378.314 282.211C381.472 280.869 383.912 278.379 385.125 275.16C385.307 274.676 386.09 274.886 385.906 275.375C384.621 278.785 382.084 281.482 378.722 282.91C378.248 283.112 377.835 282.415 378.314 282.211Z" fill="#FDCDBD"/>
<path d="M375.389 229.982C375.389 229.982 382.432 244.554 384.544 252.168C386.526 259.312 387.662 270.193 382.247 276.467C382.25 276.468 382.25 276.468 382.248 276.47C381.057 277.851 379.616 279.019 377.925 279.875C369.711 284.028 353.451 285.401 347.182 285.062C347.168 285.058 344.845 281.126 344.845 281.126C342.542 281.424 341.038 272.49 346.096 271.765C355.232 270.453 358.18 270.395 365.734 266.761C369.736 264.839 362.439 237.526 362.439 237.526C359.54 233.32 355.391 232.038 359.599 229.14C363.805 226.244 372.488 225.775 375.389 229.982Z" fill="#FDCDBD"/>
<path d="M366.21 266.521C368.619 264.204 373.363 262.837 376.534 264.007C376.747 264.086 376.655 264.43 376.44 264.351C373.474 263.256 368.737 264.583 366.461 266.773C366.296 266.931 366.044 266.68 366.21 266.521Z" fill="#F2A38A"/>
<g opacity="0.6">
<path d="M382.247 276.467C382.25 276.468 382.25 276.468 382.247 276.471C381.057 277.851 379.616 279.019 377.925 279.876C369.711 284.028 353.451 285.401 347.182 285.062C347.182 285.062 349.241 282.454 357.948 280.845C363.321 279.852 371.999 277.365 375.335 275.112C377.389 273.723 380.818 274.359 382.247 276.467Z" fill="#FDDFD8"/>
</g>
<path d="M346.095 271.765C344.528 270.922 333.989 268.908 333.747 270.442C333.357 272.899 339.468 273.502 338.42 274.586C337.373 275.67 327.584 275.697 326.842 277.984C326.099 280.272 333.472 278.972 333.472 278.972C333.472 278.972 327.788 278.945 327.624 280.078C327.364 281.867 332.429 282.342 332.429 282.342C332.429 282.342 329.088 281.701 328.837 282.717C328.464 284.227 333.658 284.824 333.658 284.824C333.658 284.824 334.345 285.477 335.01 285.977C336.964 287.446 348.339 285.636 349.173 283.895C350.006 282.154 346.095 271.765 346.095 271.765Z" fill="#FDCDBD"/>
<path d="M344.771 271.123C347.069 271.309 348.896 272.496 349.917 274.572C350.018 274.777 349.711 274.957 349.61 274.752C348.647 272.794 346.957 271.656 344.771 271.479C344.545 271.46 344.543 271.104 344.771 271.123Z" fill="#F2A38A"/>
<path d="M328.739 279.392C328.74 279.392 328.741 279.392 328.743 279.392C329.006 279.379 335.185 279.09 336.108 278.609C336.153 278.585 336.172 278.529 336.147 278.484C336.123 278.439 336.062 278.423 336.023 278.444C335.134 278.907 328.799 279.204 328.735 279.206C328.683 279.209 328.644 279.253 328.646 279.303C328.648 279.354 328.69 279.392 328.739 279.392Z" fill="#FBB89E"/>
<path d="M333.113 282.327C334.051 282.327 335.171 282.284 336.145 282.127C336.196 282.119 336.23 282.071 336.222 282.02C336.214 281.975 336.176 281.942 336.131 281.942C336.125 281.942 336.121 281.943 336.116 281.943C333.984 282.291 331.142 282.079 331.113 282.079C331.11 282.077 331.109 282.077 331.106 282.077C331.058 282.077 331.017 282.114 331.014 282.164C331.01 282.214 331.047 282.26 331.099 282.262C331.115 282.264 331.98 282.327 333.113 282.327Z" fill="#FBB89E"/>
<path d="M334.575 284.955C335.144 284.955 335.902 284.903 336.446 284.672C336.494 284.652 336.515 284.598 336.495 284.551C336.475 284.505 336.422 284.479 336.374 284.502C335.453 284.892 333.815 284.736 333.798 284.738C333.794 284.736 333.791 284.736 333.789 284.736C333.741 284.736 333.701 284.772 333.697 284.82C333.691 284.872 333.729 284.917 333.779 284.921C333.81 284.925 334.136 284.955 334.575 284.955Z" fill="#FBB89E"/>
<path d="M352.219 216.429C352.219 216.429 373.452 216.35 380.374 236.403C380.374 236.403 374.769 243.59 360.811 244.471L354.57 225.136L352.219 216.429Z" fill="#502445"/>
<path d="M271.541 252.557C271.129 251.858 271.293 250.965 271.918 250.448C274.175 248.588 278.474 244.257 279.861 246.26C281.241 248.253 275.377 255.046 273.588 254.456C272.658 254.149 271.979 253.301 271.541 252.557Z" fill="#FDCDBD"/>
<path d="M275.423 255.763C274.939 255.112 275.007 254.206 275.574 253.626C277.618 251.536 281.917 245.705 283.606 247.22C285.773 249.166 279.504 257.828 277.662 257.432C276.704 257.227 275.938 256.456 275.423 255.763Z" fill="#FDCDBD"/>
<path d="M280.143 257.62C279.576 257.04 279.521 256.133 280.005 255.482C281.75 253.136 285.478 247.694 286.715 249.516C288.077 251.522 284.463 259.119 282.585 258.974C281.608 258.899 280.746 258.237 280.143 257.62Z" fill="#FDCDBD"/>
<path d="M284.866 257.255C284.437 256.812 284.395 256.123 284.76 255.627C286.075 253.843 288.933 249.439 289.819 251.091C290.69 252.716 288.127 258.398 286.709 258.286C285.973 258.228 285.321 257.724 284.866 257.255Z" fill="#FDCDBD"/>
<path d="M275.443 253.546C275.413 253.595 275.411 253.658 275.445 253.71C275.491 253.782 275.587 253.803 275.658 253.756C275.758 253.693 278.106 252.166 279.129 249.894C279.164 249.816 279.13 249.724 279.052 249.689C278.974 249.654 278.88 249.69 278.847 249.767C277.859 251.954 275.515 253.481 275.491 253.496C275.471 253.509 275.455 253.526 275.443 253.546Z" fill="#ED9F88"/>
<path d="M279.51 256.226C279.472 256.287 279.482 256.369 279.536 256.42C279.599 256.478 279.697 256.475 279.755 256.412C279.86 256.3 282.335 253.634 283.35 251.38C283.385 251.302 283.35 251.211 283.272 251.176C283.194 251.14 283.1 251.176 283.068 251.253C282.072 253.461 279.554 256.173 279.529 256.2C279.521 256.209 279.515 256.217 279.51 256.226Z" fill="#ED9F88"/>
<path d="M286.473 253.018C286.47 253.024 286.466 253.03 286.464 253.035C285.461 255.261 284.553 256.921 284.544 256.937C284.503 257.012 284.531 257.106 284.606 257.147C284.679 257.187 284.77 257.163 284.812 257.092C284.813 257.09 284.815 257.088 284.816 257.086C284.825 257.069 285.738 255.4 286.746 253.162C286.781 253.084 286.746 252.992 286.668 252.957C286.596 252.925 286.513 252.952 286.473 253.018Z" fill="#ED9F88"/>
</svg>
