<svg width="57" height="56" viewBox="0 0 57 56" fill="none" xmlns="http://www.w3.org/2000/svg">
<path d="M47.05 49C42.1889 49 37.3861 47.9407 32.6417 45.822C27.8972 43.7033 23.5806 40.6988 19.6917 36.8083C15.8028 32.9179 12.799 28.6012 10.6803 23.8583C8.56167 19.1154 7.50156 14.3127 7.5 9.45C7.5 8.75 7.73333 8.16667 8.2 7.7C8.66667 7.23333 9.25 7 9.95 7H19.4C19.9444 7 20.4306 7.18511 20.8583 7.55533C21.2861 7.92556 21.5389 8.36267 21.6167 8.86667L23.1333 17.0333C23.2111 17.6556 23.1917 18.1806 23.075 18.6083C22.9583 19.0361 22.7444 19.4056 22.4333 19.7167L16.775 25.4333C17.5528 26.8722 18.476 28.2621 19.5447 29.603C20.6133 30.9439 21.7901 32.2373 23.075 33.4833C24.2806 34.6889 25.5444 35.8073 26.8667 36.8387C28.1889 37.87 29.5889 38.8127 31.0667 39.6667L36.55 34.1833C36.9 33.8333 37.3573 33.5712 37.922 33.397C38.4867 33.2228 39.0404 33.1738 39.5833 33.25L47.6333 34.8833C48.1778 35.0389 48.625 35.3212 48.975 35.7303C49.325 36.1394 49.5 36.596 49.5 37.1V46.55C49.5 47.25 49.2667 47.8333 48.8 48.3C48.3333 48.7667 47.75 49 47.05 49ZM14.5583 21L18.4083 17.15L17.4167 11.6667H12.225C12.4194 13.2611 12.6917 14.8361 13.0417 16.3917C13.3917 17.9472 13.8972 19.4833 14.5583 21ZM35.4417 41.8833C36.9583 42.5444 38.5046 43.0694 40.0803 43.4583C41.6561 43.8472 43.2404 44.1 44.8333 44.2167V39.0833L39.35 37.975L35.4417 41.8833Z" fill="#0090BC"/>
</svg>
