<svg width="57" height="56" viewBox="0 0 57 56" fill="none" xmlns="http://www.w3.org/2000/svg">
<path d="M9.83268 46.6667C8.54935 46.6667 7.45113 46.2102 6.53802 45.297C5.6249 44.3839 5.16757 43.2849 5.16602 42V14C5.16602 12.7167 5.62335 11.6185 6.53802 10.7054C7.45268 9.79226 8.5509 9.33493 9.83268 9.33337H47.166C48.4493 9.33337 49.5483 9.79071 50.463 10.7054C51.3777 11.62 51.8342 12.7183 51.8327 14V42C51.8327 43.2834 51.3761 44.3824 50.463 45.297C49.5499 46.2117 48.4509 46.6683 47.166 46.6667H9.83268ZM28.4993 30.3334L9.83268 18.6667V42H47.166V18.6667L28.4993 30.3334ZM28.4993 25.6667L47.166 14H9.83268L28.4993 25.6667ZM9.83268 18.6667V14V42V18.6667Z" fill="#0090BC"/>
</svg>
