<svg width="57" height="56" viewBox="0 0 57 56" fill="none" xmlns="http://www.w3.org/2000/svg">
<path d="M28.5 30.3333C32.366 30.3333 35.5 27.1992 35.5 23.3333C35.5 19.4673 32.366 16.3333 28.5 16.3333C24.634 16.3333 21.5 19.4673 21.5 23.3333C21.5 27.1992 24.634 30.3333 28.5 30.3333Z" stroke="#0090BC" stroke-width="4" stroke-linecap="round" stroke-linejoin="round"/>
<path d="M28.5007 4.66663C23.5499 4.66663 18.802 6.63329 15.3013 10.134C11.8006 13.6346 9.83398 18.3826 9.83398 23.3333C9.83398 27.748 10.772 30.6366 13.334 33.8333L28.5007 51.3333L43.6673 33.8333C46.2293 30.6366 47.1673 27.748 47.1673 23.3333C47.1673 18.3826 45.2007 13.6346 41.7 10.134C38.1993 6.63329 33.4514 4.66663 28.5007 4.66663Z" stroke="#0090BC" stroke-width="4" stroke-linecap="round" stroke-linejoin="round"/>
</svg>
