<svg width="57" height="56" viewBox="0 0 57 56" fill="none" xmlns="http://www.w3.org/2000/svg">
<path d="M44.9499 11.4566C42.8104 9.29621 40.2623 7.58322 37.4541 6.41748C34.6459 5.25173 31.6337 4.65656 28.5932 4.66663C15.8532 4.66663 5.46987 15.05 5.46987 27.79C5.46987 31.8733 6.5432 35.84 8.54987 39.34L5.2832 51.3333L17.5332 48.1133C20.9165 49.9566 24.7199 50.9366 28.5932 50.9366C41.3332 50.9366 51.7165 40.5533 51.7165 27.8133C51.7165 21.63 49.3132 15.82 44.9499 11.4566ZM28.5932 47.0166C25.1399 47.0166 21.7565 46.0833 18.7932 44.3333L18.0932 43.9133L10.8132 45.8266L12.7499 38.7333L12.2832 38.01C10.3641 34.9464 9.34536 31.4049 9.3432 27.79C9.3432 17.1966 17.9765 8.5633 28.5699 8.5633C33.7032 8.5633 38.5332 10.57 42.1499 14.21C43.941 15.9923 45.3604 18.1126 46.3257 20.4477C47.291 22.7829 47.783 25.2865 47.7732 27.8133C47.8199 38.4066 39.1865 47.0166 28.5932 47.0166ZM39.1399 32.6433C38.5565 32.3633 35.7099 30.9633 35.1965 30.7533C34.6599 30.5666 34.2865 30.4733 33.8899 31.0333C33.4932 31.6166 32.3965 32.9233 32.0699 33.2966C31.7432 33.6933 31.3932 33.74 30.8099 33.4366C30.2265 33.1566 28.3599 32.5266 26.1665 30.5666C24.4399 29.0266 23.2965 27.1366 22.9465 26.5533C22.6199 25.97 22.8999 25.6666 23.2032 25.3633C23.4599 25.1066 23.7865 24.6866 24.0665 24.36C24.3465 24.0333 24.4632 23.7766 24.6499 23.4033C24.8365 23.0066 24.7432 22.68 24.6032 22.4C24.4632 22.12 23.2965 19.2733 22.8299 18.1066C22.3632 16.9866 21.8732 17.1266 21.5232 17.1033H20.4032C20.0065 17.1033 19.3999 17.2433 18.8632 17.8266C18.3499 18.41 16.8565 19.81 16.8565 22.6566C16.8565 25.5033 18.9332 28.2566 19.2132 28.63C19.4932 29.0266 23.2965 34.86 29.0832 37.3566C30.4599 37.9633 31.5332 38.3133 32.3732 38.57C33.7499 39.0133 35.0099 38.9433 36.0132 38.8033C37.1332 38.64 39.4432 37.4033 39.9099 36.05C40.3999 34.6966 40.3999 33.5533 40.2365 33.2966C40.0732 33.04 39.7232 32.9233 39.1399 32.6433Z" fill="#0090BC"/>
</svg>
