<svg width="258" height="181" viewBox="0 0 258 181" fill="none" xmlns="http://www.w3.org/2000/svg">
<path d="M146.472 33.0949C115.108 1.7314 64.2581 1.7314 32.8944 33.0949C5.53527 60.454 2.0492 102.639 22.4223 133.784L14.8241 164.25L44.1621 156.036C75.4517 177.617 118.633 174.511 146.472 146.672C177.835 115.309 177.836 64.4583 146.472 33.0949Z" fill="url(#paint0_linear_159_489)"/>
<path opacity="0.8" d="M153.476 75.6852C175.095 54.0659 210.147 54.0659 231.766 75.6852C250.625 94.5442 253.028 123.623 238.985 145.092L244.222 166.093L223.999 160.43C202.431 175.307 172.665 173.166 153.476 153.976C131.856 132.356 131.856 97.3046 153.476 75.6852Z" fill="url(#paint1_linear_159_489)"/>
<path d="M55.2112 57.9561C69.5027 74.6385 63.5939 69.4372 77.9517 62.8118C91.4871 56.5752 100.319 66.0839 96.1679 76.1664C92.4841 85.1146 84.027 87.9241 80.1884 96.1796C78.0755 100.723 79.8008 104.077 83.0127 115.806C114.567 111.633 88.4796 110.675 105.433 93.9865C144.256 55.7983 89.3112 20.7537 55.2112 57.9561Z" fill="white"/>
<path d="M83.4402 134.678C85.4126 149.596 108.402 146.43 106.446 131.637C104.496 116.886 81.4738 119.807 83.4402 134.678Z" fill="white"/>
<path d="M175.958 86.4083C181.863 100.7 179.05 95.9259 190.107 94.6405C200.529 93.4349 204.353 101.732 199.366 107.567C194.941 112.745 188.667 112.772 184.29 117.453C181.881 120.029 182.3 122.651 181.878 131.201C203.902 135.325 186.66 128.967 201.659 121.518C236 104.48 206.923 68.9941 175.958 86.4083Z" fill="white"/>
<path d="M178.028 143.921C176.079 154.332 192.152 157.253 194.085 146.928C196.013 136.633 179.972 133.541 178.028 143.921Z" fill="white"/>
<path opacity="0.8" d="M258 180.27L235.022 173.836L235.265 172.97L256.752 178.986L255.993 175.945L256.867 175.727L258 180.27Z" fill="#0090BC"/>
<path d="M89.7145 180.119C79.051 180.118 68.5857 178.265 58.6086 174.61L58.9181 173.765C68.7959 177.384 79.1571 179.218 89.7147 179.219C92.4219 179.219 95.1614 179.094 97.8565 178.849C108.579 177.873 118.912 175.013 128.567 170.35L128.958 171.16C119.205 175.87 108.769 178.759 97.9383 179.745C95.2156 179.993 92.4488 180.119 89.7145 180.119Z" fill="#502445"/>
<path opacity="0.8" d="M165.757 174.361C160.249 171.877 155.111 168.632 150.483 164.716L151.064 164.029C155.628 167.892 160.696 171.092 166.126 173.54L165.757 174.361Z" fill="#0090BC"/>
<path d="M16.7271 174.037L16.4846 173.171L42.6413 165.846L42.8046 165.94L42.5889 166.357L42.7028 166.764L16.7271 174.037Z" fill="#502445"/>
<path opacity="0.8" d="M251.639 158.482L248.666 146.565L248.754 146.409C254.158 136.814 257.015 125.891 257.015 114.822C257.015 112.607 256.899 110.367 256.672 108.165C255.742 99.1693 252.999 90.6461 248.522 82.8316L249.302 82.3843C253.843 90.3084 256.624 98.9509 257.567 108.073C257.798 110.305 257.915 112.576 257.915 114.822C257.915 125.985 255.049 137.002 249.627 146.694L252.512 158.264L251.639 158.482Z" fill="#0090BC"/>
<path d="M6.16321 124.115C3.88495 118.552 2.15823 112.727 1.03198 106.802L1.91612 106.634C3.03121 112.5 4.74041 118.267 6.99635 123.774L6.16321 124.115Z" fill="#502445"/>
<path d="M0.894611 79.8929L0 79.7928C2.26246 59.5665 11.4491 40.4861 25.8675 26.0677C28.5943 23.3413 31.5132 20.7704 34.5423 18.4272L35.0934 19.139C32.0936 21.459 29.2038 24.0042 26.5039 26.7039C12.2291 40.9785 3.13406 59.8682 0.894611 79.8929Z" fill="#502445"/>
<path opacity="0.8" d="M237.606 68.7501C227.827 59.1991 215.523 53.1044 202.024 51.1246C198.93 50.6707 195.771 50.4405 192.635 50.4405C185.559 50.4405 178.583 51.5894 171.902 53.8553L171.512 53.9871L171.105 53.0737L171.925 52.7036L172.001 52.8724C178.658 50.6615 185.598 49.5405 192.635 49.5405C195.815 49.5405 199.017 49.7737 202.155 50.2342C215.842 52.2419 228.318 58.4219 238.234 68.1059L237.606 68.7501Z" fill="#0090BC"/>
<path d="M156.553 30.6211C155.369 29.2871 154.128 27.9694 152.862 26.7039C149.909 23.7505 146.731 20.9857 143.419 18.486L143.961 17.7681C147.307 20.2924 150.515 23.0847 153.498 26.0675C154.777 27.3452 156.031 28.6767 157.226 30.0234L156.553 30.6211Z" fill="#502445"/>
<path d="M50.2579 9.67802L49.8606 8.87047C57.9844 4.87682 66.6548 2.13769 75.6311 0.729492L75.7709 1.61878C66.8838 3.01307 58.3 5.72456 50.2579 9.67802Z" fill="#502445"/>
<defs>
<linearGradient id="paint0_linear_159_489" x1="9.37619" y1="89.8769" x2="169.995" y2="89.8769" gradientUnits="userSpaceOnUse">
<stop offset="0.1377" stop-color="#502445"/>
<stop offset="1" stop-color="#863872"/>
</linearGradient>
<linearGradient id="paint1_linear_159_489" x1="247.978" y1="114.826" x2="137.261" y2="114.826" gradientUnits="userSpaceOnUse">
<stop stop-color="#3662F0"/>
<stop offset="1" stop-color="#0C1E59"/>
</linearGradient>
</defs>
</svg>
