<svg width="57" height="56" viewBox="0 0 57 56" fill="none" xmlns="http://www.w3.org/2000/svg">
<path d="M11.9775 38.5C11.9775 40.5683 12.3849 42.6164 13.1764 44.5273C13.9679 46.4381 15.1281 48.1744 16.5906 49.6369C18.0531 51.0995 19.7894 52.2596 21.7003 53.0511C23.6112 53.8426 25.6592 54.25 27.7275 54.25C29.7959 54.25 31.8439 53.8426 33.7548 53.0511C35.6657 52.2596 37.4019 51.0995 38.8645 49.6369C40.327 48.1744 41.4871 46.4381 42.2786 44.5273C43.0702 42.6164 43.4775 40.5683 43.4775 38.5C43.4775 34.3228 41.8182 30.3168 38.8645 27.3631C35.9108 24.4094 31.9047 22.75 27.7275 22.75C23.5504 22.75 19.5443 24.4094 16.5906 27.3631C13.6369 30.3168 11.9775 34.3228 11.9775 38.5Z" stroke="#0090BC" stroke-width="3.5" stroke-linecap="round" stroke-linejoin="round"/>
<path d="M25.5835 29.75V38.5L32.5835 43.75" stroke="#0090BC" stroke-width="3.5" stroke-linecap="round" stroke-linejoin="round"/>
<path d="M43.3844 36.7827C45.9739 35.9433 48.228 34.2994 49.8185 32.0903C51.4091 29.8811 52.2531 27.222 52.2278 24.5C52.147 19.8872 50.2623 15.4897 46.9778 12.25C46.8785 13.0611 46.6163 13.8438 46.207 14.5511C45.7978 15.2584 45.2498 15.8758 44.5961 16.3661C43.9423 16.8564 43.1963 17.2096 42.4027 17.4044C41.609 17.5993 40.7843 17.6318 39.9778 17.5C37.7457 15.6235 36.1935 13.0643 35.5609 10.2176C34.9283 7.37099 35.2505 4.39526 36.4778 1.75C25.5391 1.75 18.5391 8.204 17.2278 17.5C15.6142 17.6674 13.997 17.2197 12.6992 16.2464C11.4015 15.2731 10.5189 13.8459 10.2278 12.25C1.4451 19.7167 3.57077 33.3503 12.0688 36.7897" stroke="#0090BC" stroke-width="3.5" stroke-linecap="round" stroke-linejoin="round"/>
</svg>
