<svg width="57" height="56" viewBox="0 0 57 56" fill="none" xmlns="http://www.w3.org/2000/svg">
<path d="M26.1667 4.66663C15.858 4.66663 7.5 12.9383 7.5 23.1443C7.5 26.628 8.473 29.8876 10.167 32.6666" stroke="#0090BC" stroke-width="3" stroke-linecap="round"/>
<path d="M34.3332 25.6667V30.3333M41.3332 25.6667V30.3333M34.3332 7V11.6667M41.3332 7V11.6667M30.8332 15.1667H26.1665M30.8332 22.1667H26.1665M49.4998 15.1667H44.8332M49.4998 22.1667H44.8332M40.1665 11.6667H35.4998C33.2995 11.6667 32.2005 11.6667 31.5168 12.3503C30.8332 13.034 30.8332 14.133 30.8332 16.3333V21C30.8332 23.2003 30.8332 24.2993 31.5168 24.983C32.2005 25.6667 33.2995 25.6667 35.4998 25.6667H40.1665C42.3668 25.6667 43.4658 25.6667 44.1495 24.983C44.8332 24.2993 44.8332 23.2003 44.8332 21V16.3333C44.8332 14.133 44.8332 13.034 44.1495 12.3503C43.4658 11.6667 42.3668 11.6667 40.1665 11.6667Z" stroke="#0090BC" stroke-width="3" stroke-linecap="round" stroke-linejoin="round"/>
<path d="M33.1667 44.3333L32.8634 45.8429C32.5367 47.4926 32.371 48.3163 32 48.9696C31.4284 49.9765 30.5027 50.735 29.403 51.0976C28.6914 51.3333 27.8467 51.3333 26.1667 51.3333C24.4867 51.3333 23.642 51.3333 22.9304 51.0999C21.8303 50.7368 20.9046 49.9774 20.3334 48.9696C19.9624 48.3163 19.7967 47.4926 19.47 45.8429L19.1667 44.3333M15.3937 39.8953C15.179 39.2513 15.0717 38.9269 15.0834 38.6656C15.0966 38.3954 15.1878 38.1348 15.346 37.9153C15.5042 37.6958 15.7225 37.5269 15.9747 37.4289C16.2174 37.3333 16.558 37.3333 17.2347 37.3333H35.0987C35.7777 37.3333 36.116 37.3333 36.3587 37.4266C36.6112 37.5247 36.8299 37.694 36.9881 37.9139C37.1463 38.1339 37.2373 38.395 37.25 38.6656C37.2617 38.9269 37.1544 39.2489 36.9397 39.8953C36.543 41.0876 36.3447 41.6849 36.039 42.1679C35.3997 43.1773 34.3975 43.9031 33.239 44.1956C32.6837 44.3333 32.0584 44.3333 30.8054 44.3333H21.528C20.275 44.3333 19.6474 44.3333 19.0944 44.1933C17.9363 43.9013 16.9342 43.1765 16.2944 42.1679C15.9887 41.6849 15.7904 41.0876 15.3937 39.8953Z" stroke="#0090BC" stroke-width="3"/>
</svg>
