<svg width="57" height="56" viewBox="0 0 57 56" fill="none" xmlns="http://www.w3.org/2000/svg">
<path d="M28.2159 12.6941L28.1928 12.6787L26.1575 11.3108C24.7605 10.3711 23.094 9.91532 21.4132 10.0131C19.7324 10.1109 18.13 10.757 16.8514 11.8523L11.8544 16.1358C11.5054 16.4342 11.0612 16.5981 10.602 16.5977H4.92488C4.41437 16.5977 3.92477 16.8005 3.56378 17.1615C3.2028 17.5225 3 18.0121 3 18.5226V33.9986C3 35.0611 3.86234 35.9235 4.92488 35.9235H10.2837C10.5571 35.9233 10.8273 35.9814 11.0764 36.0938C11.3256 36.2062 11.5479 36.3704 11.7287 36.5754L17.7317 43.4023C18.6662 44.4644 19.9581 45.1465 21.3623 45.3192C22.7664 45.4919 24.1851 45.1431 25.3491 44.339L27.1046 43.1251L28.9884 43.7667C30.1525 44.1615 31.4122 44.1745 32.5842 43.8038C33.7562 43.4331 34.7793 42.6982 35.5047 41.7058L36.711 40.0581L37.5477 40.171C38.7064 40.3272 39.8853 40.1279 40.9283 39.5995C41.9714 39.0711 42.8294 38.2385 43.389 37.2119L43.5148 36.9809H52.4051C52.9156 36.9809 53.4052 36.7781 53.7662 36.4171C54.1272 36.0561 54.33 35.5665 54.33 35.056V18.5252C54.33 18.0147 54.1272 17.5251 53.7662 17.1641C53.4052 16.8031 52.9156 16.6003 52.4051 16.6003H46.7306C46.269 16.6005 45.8226 16.4347 45.473 16.1332L41.1382 12.3887C39.3301 10.8263 37.0053 9.99242 34.6163 10.0493C32.2273 10.1063 29.945 11.0499 28.2133 12.6967M24.0042 14.506L25.4466 15.4762L20.4163 20.5348C19.8741 21.08 19.4463 21.728 19.158 22.4407C18.8696 23.1535 18.7265 23.9166 18.737 24.6854C18.7475 25.4542 18.9115 26.2132 19.2192 26.9178C19.527 27.6224 19.9724 28.2584 20.5292 28.7886L20.7037 28.9529C22.7826 30.9316 25.9958 31.0856 28.2518 29.3122L33.5875 25.1237L40.4067 31.6811C40.7114 31.9736 40.9114 32.3582 40.9758 32.7756C41.0403 33.1931 40.9657 33.6201 40.7635 33.9909L40.6993 34.1038L40.6634 34.1706L40.0089 35.3691C39.8224 35.7109 39.5366 35.988 39.1893 36.164C38.8419 36.3399 38.4494 36.4064 38.0635 36.3547L36.0899 36.0903C35.7469 36.0442 35.3979 36.0913 35.0795 36.2268C34.761 36.3623 34.485 36.5811 34.2805 36.8603L32.3967 39.4319C32.1551 39.7626 31.8142 40.0077 31.4237 40.1314C31.0332 40.2551 30.6134 40.251 30.2254 40.1197L27.4279 39.1701C27.1434 39.0733 26.8401 39.0444 26.5424 39.0859C26.2447 39.1273 25.9608 39.2379 25.7135 39.4088L23.1624 41.172C22.7742 41.4404 22.3009 41.5568 21.8324 41.499C21.364 41.4413 20.9331 41.2135 20.6216 40.8589L14.6185 34.032C14.0762 33.4161 13.4089 32.9229 12.661 32.5853C11.913 32.2476 11.1018 32.0732 10.2812 32.0737H6.84975V20.4475H10.5994C11.9774 20.4478 13.3101 19.9553 14.3568 19.059L19.3563 14.7755C19.9955 14.2277 20.7966 13.9044 21.637 13.8553C22.4774 13.8062 23.3107 14.0338 24.0094 14.5035M44.8493 33.1337C44.8586 32.3451 44.7063 31.563 44.4017 30.8356C44.0972 30.1082 43.6468 29.4508 43.0785 28.9041L36.6083 22.6829C36.8987 22.3127 37.0434 21.8489 37.0152 21.3793C36.9869 20.9096 36.7876 20.4666 36.4549 20.1338C36.1222 19.8011 35.6791 19.6018 35.2094 19.5735C34.7398 19.5453 34.276 19.69 33.9058 19.9804L32.6071 20.9993L32.4532 21.1199L25.8778 26.2863C25.5138 26.5723 25.0588 26.7176 24.5964 26.6954C24.134 26.6732 23.6951 26.4852 23.36 26.1657L23.1855 25.9988C22.9999 25.8222 22.8513 25.6102 22.7487 25.3754C22.646 25.1405 22.5913 24.8876 22.5877 24.6313C22.5841 24.375 22.6317 24.1206 22.7278 23.883C22.8238 23.6454 22.9664 23.4293 23.147 23.2475L30.7567 15.5994C31.7872 14.5633 33.1723 13.9565 34.6325 13.9013C36.0928 13.846 37.5197 14.3464 38.6256 15.3017L42.9553 19.0436C44.0051 19.9501 45.3461 20.4484 46.7332 20.4475H50.4803V33.1337H44.8493Z" fill="#0090BC"/>
</svg>
