<svg width="57" height="56" viewBox="0 0 57 56" fill="none" xmlns="http://www.w3.org/2000/svg">
<path d="M12.1667 9.33329V23.3916V23.3333V46.6666V9.33329ZM12.1667 51.3333C10.8833 51.3333 9.78511 50.8767 8.872 49.9636C7.95889 49.0505 7.50156 47.9515 7.5 46.6666V9.33329C7.5 8.04996 7.95733 6.95174 8.872 6.03863C9.78667 5.12551 10.8849 4.66818 12.1667 4.66663H30.8333L44.8333 18.6666V24.5C44.0944 24.1888 43.3361 23.9462 42.5583 23.772C41.7806 23.5977 40.9833 23.471 40.1667 23.3916V21H28.5V9.33329H12.1667V46.6666H26.225C26.8472 47.6 27.5472 48.4656 28.325 49.2636C29.1028 50.0616 29.9583 50.7515 30.8917 51.3333H12.1667ZM39 44.3333C40.6333 44.3333 42.0139 43.7694 43.1417 42.6416C44.2694 41.5138 44.8333 40.1333 44.8333 38.5C44.8333 36.8666 44.2694 35.4861 43.1417 34.3583C42.0139 33.2305 40.6333 32.6666 39 32.6666C37.3667 32.6666 35.9861 33.2305 34.8583 34.3583C33.7306 35.4861 33.1667 36.8666 33.1667 38.5C33.1667 40.1333 33.7306 41.5138 34.8583 42.6416C35.9861 43.7694 37.3667 44.3333 39 44.3333ZM50.9 53.6666L44.6 47.3666C43.7833 47.9111 42.899 48.3194 41.947 48.5916C40.995 48.8638 40.0127 49 39 49C36.0833 49 33.6046 47.9795 31.5637 45.9386C29.5228 43.8977 28.5016 41.4182 28.5 38.5C28.4984 35.5817 29.5197 33.103 31.5637 31.0636C33.6077 29.0243 36.0864 28.0031 39 28C41.9136 27.9968 44.3931 29.0181 46.4387 31.0636C48.4842 33.1092 49.5047 35.588 49.5 38.5C49.5 39.5111 49.3639 40.4934 49.0917 41.447C48.8195 42.4005 48.4111 43.2848 47.8667 44.1L54.1667 50.4L50.9 53.6666Z" fill="#0090BC"/>
</svg>
