<svg width="57" height="56" viewBox="0 0 57 56" fill="none" xmlns="http://www.w3.org/2000/svg">
<path d="M53 43.75V54.25H42.5" stroke="#0090BC" stroke-width="1.5" stroke-linecap="round" stroke-linejoin="round"/>
<path d="M53 54.25L41.2167 42.4667C40.5467 41.7962 39.7077 41.3196 38.7887 41.0875C37.8697 40.8554 36.905 40.8764 35.997 41.1484L22.6667 44.709C21.777 44.9471 20.8404 44.9469 19.9509 44.7085C19.0613 44.4702 18.2501 44.002 17.5987 43.351L4 29.7407M7.84533 22.7244C7.2252 19.6556 7.43969 16.4766 8.46643 13.519C9.49317 10.5613 11.2946 7.93326 13.6828 5.90883C16.071 3.88439 18.9586 2.53771 22.0445 2.00921C25.1303 1.4807 28.3015 1.78972 31.2273 2.90405C34.153 4.01837 36.7263 5.89719 38.6788 8.34462C40.6312 10.792 41.8913 13.7184 42.3278 16.8187C42.7642 19.9189 42.3609 23.0794 41.16 25.9708C39.959 28.8621 38.0045 31.3783 35.5 33.257" stroke="#0090BC" stroke-width="3.5" stroke-linecap="round" stroke-linejoin="round"/>
<path d="M21.6284 11.6667C23.4174 11.6667 25.1332 12.3774 26.3983 13.6425C27.6633 14.9076 28.374 16.6234 28.374 18.4124C28.374 20.2015 27.6633 21.9173 26.3983 23.1823C25.1332 24.4474 23.4174 25.1581 21.6284 25.1581H17.58L25.6743 33.2524M17.58 11.6714H32.42M21.6284 18.4171H32.42" stroke="#0090BC" stroke-width="4" stroke-linecap="round" stroke-linejoin="round"/>
</svg>
