<svg width="57" height="56" viewBox="0 0 57 56" fill="none" xmlns="http://www.w3.org/2000/svg">
<path d="M51.5533 5.0166L48.7533 5.94993C43.9546 7.61721 38.8303 8.12884 33.7967 7.44327C28.5074 6.62243 23.0935 7.35184 18.21 9.54327C15.6211 10.6456 13.3491 12.3781 11.6008 14.5828C9.85247 16.7876 8.6834 19.3946 8.20001 22.1666C7.7083 24.8323 7.7586 27.5698 8.34791 30.2156C8.93721 32.8615 10.0534 35.3615 11.63 37.5666C11.49 38.0566 11.35 38.5466 11.2333 39.0366C10.2856 43.0663 9.81574 47.1936 9.83335 51.3333H14.5C14.7218 47.9451 15.1818 44.5768 15.8767 41.2533C19.114 43.0014 22.7445 43.893 26.4233 43.8433C29.8545 43.8409 33.2503 43.1506 36.41 41.8133C54.1667 34.2299 51.8333 9.0066 51.8333 7.9566L51.5533 5.0166ZM34.59 37.5199C28.5 40.1099 21.22 39.6666 17.1367 36.4699C17.827 34.1624 18.774 31.9396 19.96 29.8433C20.8826 28.3349 21.9704 26.934 23.2033 25.6666C24.4636 24.386 25.883 23.2725 27.4267 22.3533C30.6165 20.4459 34.1542 19.1926 37.8333 18.6666V16.3333C33.5999 16.184 29.3921 17.048 25.56 18.8533C21.6423 20.7675 18.3192 23.7115 15.9467 27.3699C15.0669 28.7675 14.2872 30.2256 13.6133 31.7333C12.5319 28.9668 12.2253 25.9577 12.7267 23.0299C13.0552 20.9802 13.9001 19.0478 15.1819 17.4149C16.4637 15.782 18.1402 14.5024 20.0533 13.6966C22.8424 12.3904 25.887 11.7209 28.9667 11.7366C30.4133 11.7366 31.8367 11.8766 33.33 11.9933C38.0068 12.5967 42.7551 12.3197 47.33 11.1766C47.1667 17.6166 46 32.6666 34.59 37.5199Z" fill="#0090BC"/>
</svg>
