<svg width="57" height="56" viewBox="0 0 57 56" fill="none" xmlns="http://www.w3.org/2000/svg">
<path d="M35.5 49V30.3333C35.5 29.7145 35.2542 29.121 34.8166 28.6834C34.379 28.2458 33.7855 28 33.1667 28H23.8333C23.2145 28 22.621 28.2458 22.1834 28.6834C21.7458 29.121 21.5 29.7145 21.5 30.3333V49" stroke="#0090BC" stroke-width="4" stroke-linecap="round" stroke-linejoin="round"/>
<path d="M7.5 23.3334C7.49984 22.6546 7.64778 21.9839 7.9335 21.3681C8.21923 20.7523 8.63586 20.2063 9.15433 19.7681L25.4877 5.77042C26.33 5.05854 27.3972 4.66797 28.5 4.66797C29.6028 4.66797 30.67 5.05854 31.5123 5.77042L47.8457 19.7681C48.3641 20.2063 48.7808 20.7523 49.0665 21.3681C49.3522 21.9839 49.5002 22.6546 49.5 23.3334V44.3334C49.5 45.5711 49.0083 46.7581 48.1332 47.6332C47.258 48.5084 46.071 49.0001 44.8333 49.0001H12.1667C10.929 49.0001 9.742 48.5084 8.86683 47.6332C7.99167 46.7581 7.5 45.5711 7.5 44.3334V23.3334Z" stroke="#0090BC" stroke-width="4" stroke-linecap="round" stroke-linejoin="round"/>
</svg>
