<svg width="57" height="56" viewBox="0 0 57 56" fill="none" xmlns="http://www.w3.org/2000/svg">
<path d="M49.8316 44.4429L46.651 47.6235L34.4283 35.4009L37.609 32.2202L49.8316 44.4429ZM23.5533 7.34619C24.6525 7.34619 25.7186 7.66209 26.6324 8.2417L22.6695 12.2065L21.7857 13.0903L25.0748 16.3794L24.3023 17.1528L23.4185 18.0366L28.4557 23.0737L29.3404 23.9575L35.1021 18.1958L34.8326 17.4487C34.5715 16.7257 34.4166 15.9593 34.4166 15.1665C34.4167 11.3536 37.5207 8.25049 41.3336 8.25049C41.8425 8.25051 42.3393 8.3159 42.8219 8.43311L36.9986 14.2563L37.8824 15.1401L41.359 18.6177L42.2437 19.5015L43.1275 18.6177L48.066 13.6772C48.1834 14.1602 48.2496 14.6572 48.2496 15.1665C48.2496 18.9794 45.1464 22.0834 41.3336 22.0835C40.5408 22.0835 39.7744 21.9286 39.0514 21.6675L38.3043 21.3979L37.7428 21.9595L12.0728 47.605L8.89413 44.4263L25.3004 28.021L26.1842 27.1362L20.2633 21.2153L19.3795 22.0991L18.606 22.8716L14.067 18.3325V18.356L12.1139 16.4028L19.4898 9.02783C20.568 7.95105 22.0296 7.34619 23.5533 7.34619ZM14.067 20.9438V27.4351L13.6598 27.8423L7.16757 21.3501L7.5748 20.9438H14.067Z" stroke="#0090BC" stroke-width="2.5"/>
</svg>
