<svg width="57" height="57" viewBox="0 0 57 57" fill="none" xmlns="http://www.w3.org/2000/svg">
<g clip-path="url(#clip0_247_3675)">
<path fill-rule="evenodd" clip-rule="evenodd" d="M53.413 36.1279C51.5184 33.2532 41.5364 23.4812 39.035 20.8399C35.1314 16.7006 32.441 12.0946 27.345 10.9512C24.1437 10.2022 7.94102 12.2112 10.5124 14.8782C10.5884 14.9562 10.6793 15.0182 10.7797 15.0605C10.8801 15.1028 10.9879 15.1246 11.0969 15.1246C11.2058 15.1246 11.3136 15.1028 11.414 15.0605C11.5144 15.0182 11.6053 14.9562 11.6814 14.8782C12.8037 13.7792 20.7767 12.7036 26.925 12.9369C29.744 13.9276 32.1532 15.828 33.7734 18.3386C37.1637 22.5922 49.227 35.1222 50.816 37.2736C51.0991 37.6951 51.341 38.1392 51.5417 38.6059C48.348 43.4726 44.4654 47.8504 40.015 51.6026C38.4956 52.8599 36.7388 53.7986 34.849 54.3629C31.303 51.6873 27.9227 48.7988 24.727 45.7132C20.9296 41.9137 17.3248 37.9265 13.926 33.7666C12.2767 31.3777 11.4108 28.5352 11.448 25.6326C11.448 25.4404 11.3717 25.2561 11.2358 25.1203C11.1 24.9844 10.9157 24.9081 10.7235 24.9081C10.5314 24.9081 10.3471 24.9844 10.2112 25.1203C10.0754 25.2561 9.99902 25.4404 9.99902 25.6326C10.3024 32.2242 11.7047 33.8599 15.9607 38.9559C20.6714 45.0453 26.1034 50.5408 32.1377 55.3219C32.6074 55.9743 33.2774 56.4552 34.0457 56.6915C34.8141 56.9278 35.6386 56.9065 36.3937 56.6309C42.4954 54.7596 49.3904 45.8999 52.8974 41.4362C54.2064 39.7282 55.051 38.6759 53.413 36.1279Z" fill="#0090BC"/>
<path fill-rule="evenodd" clip-rule="evenodd" d="M20.8466 23.6214C21.7333 21.1434 21.99 19.7877 19.9833 18.2197C19.4412 17.7644 18.811 17.4259 18.132 17.2254C17.4531 17.025 16.7401 16.9668 16.0376 17.0547C15.3352 17.1425 14.6584 17.3744 14.0497 17.7359C13.4411 18.0974 12.9136 18.5806 12.5003 19.1554C10.4711 17.9291 8.6812 16.3448 7.21763 14.4794C4.50396 11.4414 1.88596 6.36873 4.92629 3.7274C6.20963 2.58173 8.47996 3.19073 10.7013 4.4974C15.8206 7.42106 15.634 10.4824 17.0363 9.64006C18.9986 8.45006 12.9203 3.1884 10.349 1.90273C4.29396 -1.1586 0.203628 2.95506 0.882628 8.0744C1.72263 14.2927 6.65529 18.5021 12.127 21.2111C13.2003 28.0874 19.981 26.1227 20.8466 23.6214ZM19.9133 21.5867C19.8297 22.2942 19.4985 22.9492 18.9783 23.4359C18.4581 23.9225 17.7824 24.2094 17.071 24.2458C16.3596 24.2821 15.6582 24.0655 15.0911 23.6344C14.5241 23.2032 14.1278 22.5853 13.9726 21.8901C15.0016 22.2634 15.9373 22.2634 16.0306 21.6567C16.124 21.0501 14.815 20.3967 13.9026 19.9044C16.5206 16.7707 20.4756 19.6711 19.9133 21.5867ZM54.3696 16.3274C46.0723 12.7504 48.3146 13.7327 36.7203 10.5757C36.5336 10.5757 35.3413 9.9924 34.6856 10.4357C34.5795 10.5361 34.5032 10.6638 34.465 10.8049C34.4268 10.9459 34.4283 11.0947 34.4694 11.2349C34.5104 11.3751 34.5893 11.5012 34.6975 11.5994C34.8056 11.6976 34.9388 11.7641 35.0823 11.7914C36.6798 12.2581 38.2385 12.8274 39.7583 13.4994C44.1053 15.5201 48.5801 17.2536 53.154 18.6887C55.0953 19.5521 51.8706 26.4261 51.894 28.0384C51.894 28.255 51.98 28.4627 52.1332 28.6159C52.2863 28.769 52.494 28.8551 52.7106 28.8551C52.9272 28.8551 53.1349 28.769 53.2881 28.6159C53.4412 28.4627 53.5273 28.255 53.5273 28.0384C53.5973 26.0994 58.8823 18.8077 54.3696 16.3274ZM23.4646 29.4197C23.2736 29.3115 23.1107 29.1599 22.9891 28.9771C22.8675 28.7942 22.7906 28.5854 22.7646 28.3674C22.7852 28.2434 22.7785 28.1165 22.7451 27.9953C22.7116 27.8742 22.6522 27.7618 22.5709 27.666C22.4897 27.5701 22.3885 27.4931 22.2745 27.4403C22.1604 27.3874 22.0363 27.3601 21.9106 27.3601C21.785 27.3601 21.6608 27.3874 21.5468 27.4403C21.4328 27.4931 21.3316 27.5701 21.2503 27.666C21.1691 27.7618 21.1096 27.8742 21.0762 27.9953C21.0427 28.1165 21.0361 28.2434 21.0566 28.3674C20.985 29.0342 21.1249 29.7067 21.4566 30.2896C21.7882 30.8725 22.2948 31.3363 22.9046 31.6154C23.2574 31.7755 23.6383 31.8645 24.0255 31.8773C24.4128 31.8901 24.7987 31.8264 25.1613 31.6899C25.5239 31.5533 25.8559 31.3466 26.1386 31.0816C26.4212 30.8166 26.6488 30.4985 26.8083 30.1454C27.1116 29.6087 27.2773 29.0067 27.2983 28.3907C27.3079 27.8569 27.2209 27.3257 27.0416 26.8227C26.4583 25.2127 25.616 24.1347 28.1383 26.1461C28.2707 26.2698 28.4423 26.343 28.6232 26.353C28.8041 26.363 28.9828 26.309 29.1279 26.2006C29.2731 26.0921 29.3755 25.9361 29.4172 25.7598C29.459 25.5835 29.4374 25.3981 29.3563 25.2361C27.884 23.3881 26.1293 21.7501 24.377 23.6681C24.1186 23.994 23.9312 24.3704 23.8267 24.773C23.7223 25.1756 23.703 25.5956 23.7703 26.0061C23.7703 26.7761 24.2603 27.4784 24.377 28.3441C24.4444 28.5725 24.4444 28.8156 24.377 29.0441C24.1203 29.3707 23.817 29.6274 23.4646 29.4174M32.7933 27.7817C32.2473 27.7817 31.7168 27.8751 31.202 28.0617C30.4936 28.3244 29.843 28.7222 29.2863 29.2331C28.6205 29.8864 27.9967 30.5794 27.415 31.3121L26.3183 32.5744L25.077 34.0701C24.9719 34.2207 24.9242 34.4039 24.9424 34.5867C24.9605 34.7694 25.0434 34.9396 25.176 35.0666C25.3087 35.1936 25.4823 35.269 25.6657 35.2793C25.849 35.2895 26.03 35.2339 26.176 35.1224L27.6016 33.8857L27.9283 33.6291V33.8624C28.057 34.1653 28.2883 34.4131 28.5816 34.5624C28.9573 34.7957 29.2863 34.8657 29.6596 35.0757C29.123 35.6124 28.563 36.1981 28.0473 36.6671C27.9584 36.7391 27.8846 36.8279 27.8301 36.9284C27.7755 37.0289 27.7413 37.1392 27.7294 37.253C27.7175 37.3667 27.7281 37.4817 27.7606 37.5914C27.7932 37.701 27.847 37.8032 27.919 37.8921C27.991 37.9809 28.0798 38.0547 28.1803 38.1093C28.2808 38.1638 28.3911 38.198 28.5049 38.2099C28.6186 38.2219 28.7336 38.2112 28.8433 38.1787C28.9529 38.1462 29.0551 38.0924 29.144 38.0204C30.1986 37.2737 31.4843 36.4104 32.56 35.4514C33.3564 34.7592 34.0572 33.9798 34.6623 33.1134C35.1243 32.2641 35.3133 31.2934 35.199 30.3297C35.1706 29.9185 35.0611 29.5169 34.8769 29.148C34.6927 28.7792 34.4374 28.4505 34.1256 28.1807C33.7245 27.9327 33.2647 27.7935 32.7933 27.7817ZM32.4666 31.8301C32.0819 32.5616 31.6103 33.244 31.062 33.8624C30.9868 33.4849 30.8694 33.117 30.712 32.7657C30.5738 32.4503 30.3468 32.1819 30.0586 31.9934C30.3386 31.7601 30.6186 31.5267 30.922 31.3167C31.2253 31.1044 33.6823 29.5387 32.4666 31.8301ZM36.3236 34.6557L33.0266 36.9937C32.3682 37.5462 31.7937 38.1915 31.321 38.9094C31.1233 39.2929 31.0201 39.7181 31.0201 40.1496C31.0201 40.581 31.1233 41.0062 31.321 41.3897L31.8576 42.3231L32.6276 43.2354C32.6996 43.323 32.7882 43.3956 32.8883 43.449C32.9883 43.5024 33.0979 43.5356 33.2108 43.5467C33.3237 43.5577 33.4377 43.5464 33.5462 43.5134C33.6547 43.4804 33.7557 43.4264 33.8433 43.3544C33.9309 43.2824 34.0035 43.1938 34.0569 43.0938C34.1103 42.9937 34.1435 42.8841 34.1546 42.7712C34.1656 42.6583 34.1543 42.5444 34.1213 42.4358C34.0883 42.3273 34.0343 42.2264 33.9623 42.1387L33.659 41.3874L33.4256 40.5941V40.3607C33.4256 40.2907 33.7523 40.0574 33.9156 39.8941L34.9656 38.9094L37.3036 35.7081C37.3957 35.645 37.4729 35.5626 37.5299 35.4667C37.587 35.3708 37.6225 35.2636 37.634 35.1526C37.6455 35.0416 37.6328 34.9295 37.5967 34.8239C37.5606 34.7183 37.502 34.6218 37.4249 34.5411C37.3478 34.4604 37.2541 34.3975 37.1503 34.3566C37.0464 34.3157 36.9349 34.2979 36.8235 34.3043C36.7121 34.3108 36.6035 34.3414 36.5051 34.394C36.4067 34.4466 36.3209 34.52 36.2536 34.6091L36.3236 34.6557ZM40.414 41.2474L40.764 41.7607C40.9102 41.9147 41.0657 42.0555 41.2306 42.1831C43.1253 43.6787 43.4286 43.5154 43.781 43.2587C44.131 43.0021 44.5276 42.9087 43.3843 40.4774C43.2816 40.2621 43.1556 40.0586 43.0086 39.8707C42.8519 39.684 42.6715 39.5184 42.472 39.3784C40.5773 38.1161 40.134 38.3727 37.4203 40.5451C37.117 40.7807 36.907 41.0841 36.627 41.3407C36.3236 41.6441 35.997 41.9241 35.7146 42.2531C35.4268 42.6435 35.178 43.0565 34.968 43.4921C34.758 43.9377 34.6646 44.4254 34.688 44.9177C34.7416 45.4964 34.9446 46.0517 35.2713 46.5324C35.5746 46.9524 37.117 48.8704 37.9826 47.8857C38.846 46.9057 37.726 46.6724 37.2593 45.6667C37.1867 45.4231 37.1867 45.1637 37.2593 44.9201L37.726 44.4044L37.9593 44.5911C39.8516 45.7834 40.1573 45.5711 40.4606 45.2911C40.764 45.0111 41.0206 44.6844 39.9706 42.7221C39.8812 42.5409 39.763 42.3754 39.6206 42.2321L40.5073 41.1541C40.4886 41.1955 40.4554 41.2287 40.414 41.2474Z" fill="#0090BC"/>
</g>
<defs>
<clipPath id="clip0_247_3675">
<rect width="56" height="56" fill="white" transform="translate(0.5 0.852539)"/>
</clipPath>
</defs>
</svg>
