<svg width="57" height="57" viewBox="0 0 57 57" fill="none" xmlns="http://www.w3.org/2000/svg">
<path d="M23.8332 27.982L12.3416 41.5037C11.9774 41.9327 11.5282 42.2815 11.0223 42.528C10.5164 42.7745 9.9648 42.9134 9.40247 42.9357C8.84015 42.9581 8.27931 42.8635 7.75542 42.658C7.23153 42.4525 6.75599 42.1404 6.3589 41.7416C5.96023 41.343 5.64844 40.8661 5.44315 40.341C5.23787 39.8159 5.14354 39.254 5.16612 38.6907C5.18869 38.1274 5.32768 37.5748 5.57433 37.0678C5.82098 36.5609 6.16994 36.1104 6.59924 35.745L20.0882 24.23" stroke="#0090BC" stroke-width="3" stroke-linejoin="round"/>
<path d="M42.4998 24.3422L30.9452 35.9225M23.7212 5.52148L12.1665 17.1042M47.1665 28.0568L51.8332 24.2301M47.1665 35.7101L51.8332 38.2605M26.1712 52.1835H49.4998M29.0295 52.1835C30.3152 49.8782 31.2765 45.4705 35.8312 45.2232C37.1845 45.1485 38.5612 45.1485 39.9145 45.2232C44.4668 45.4705 45.4328 49.8782 46.7208 52.1835M22.2768 6.97048L13.6132 15.6552C13.6132 15.6552 17.9462 21.4465 22.2792 25.7888C26.6145 30.1312 32.3918 34.4758 32.3918 34.4758L41.0578 25.7888C41.0578 25.7888 36.7248 19.9998 32.3918 15.6552C28.0588 11.3152 22.2768 6.97048 22.2768 6.97048Z" stroke="#0090BC" stroke-width="3" stroke-linecap="round" stroke-linejoin="round"/>
</svg>
