<svg width="56" height="57" viewBox="0 0 56 57" fill="none" xmlns="http://www.w3.org/2000/svg">
<g clip-path="url(#clip0_247_3665)">
<path fill-rule="evenodd" clip-rule="evenodd" d="M34.3071 3.23731L39.9397 3.79498C40.2431 3.79498 41.0364 4.23832 41.3374 4.07498C41.3421 4.85276 41.2954 5.6282 41.1974 6.40132L40.9641 17.2046C40.9643 17.4315 41.0516 17.6497 41.2078 17.8142C41.3641 17.9787 41.5775 18.077 41.8041 18.089C42.041 18.0885 42.2684 17.9955 42.4379 17.8299C42.6074 17.6644 42.7056 17.4392 42.7117 17.2023C42.9217 14.6426 43.5494 12.153 43.8971 9.61432C44.0339 8.46943 44.1117 7.32143 44.1304 6.17032C44.1473 5.05042 44.0298 3.93254 43.7804 2.84065C43.6256 2.28214 43.2796 1.79573 42.8027 1.46632C42.5403 1.30131 42.2476 1.19026 41.9417 1.13965H40.1964L34.3304 1.58298C34.1257 1.5885 33.9306 1.67071 33.7836 1.81333C33.6367 1.95594 33.5487 2.14855 33.5371 2.35298C33.5282 2.46177 33.5412 2.57123 33.5753 2.67491C33.6094 2.77858 33.664 2.87436 33.7358 2.95659C33.8076 3.03881 33.8951 3.10581 33.9932 3.15363C34.0914 3.20144 34.1981 3.23144 34.3071 3.23731ZM55.3514 50.471C54.6851 48.9719 53.7726 47.5948 52.6517 46.397C51.1832 44.8584 49.6283 43.4047 47.9944 42.043C49.1764 41.1165 50.1413 39.9425 50.8213 38.6034C51.5014 37.2643 51.88 35.7926 51.9307 34.2916C52.0574 31.0533 51.0433 27.8732 49.0654 25.306C47.5047 23.1776 45.3289 21.5791 42.8314 20.7259C40.3338 19.8726 37.6348 19.8058 35.0981 20.5343C32.8707 21.1786 30.8386 22.3668 29.1848 23.9921C27.531 25.6173 26.3076 27.6285 25.6247 29.8443C24.9047 32.0236 24.7599 34.3519 25.2043 36.6036C25.6486 38.8553 26.6671 40.954 28.1611 42.6963C30.384 45.0365 33.4337 46.4148 36.6591 46.537C39.0583 46.7172 41.4636 46.276 43.6427 45.256C44.5271 47.2113 45.1547 49.3766 45.9691 51.402C46.3735 52.4286 46.8705 53.4063 47.4601 54.335C48.2534 55.4153 49.3594 56.2273 50.6264 56.6637C51.6251 56.974 52.7031 56.8993 53.6527 56.4537C54.1094 56.2341 54.5176 55.9256 54.8534 55.5462C55.1892 55.1667 55.4458 54.724 55.6081 54.244C55.9814 52.9956 55.8881 51.6563 55.3514 50.471ZM52.3251 53.7073C52.128 53.7988 51.9134 53.8462 51.6962 53.8462C51.479 53.8462 51.2644 53.7988 51.0674 53.7073C50.5027 53.4684 50.0012 53.1018 49.6021 52.6363C49.0109 51.91 48.4884 51.1304 48.0411 50.3076C46.9467 48.3523 46.0391 46.2103 44.8981 44.3483C43.7594 42.4863 40.0564 44.9083 36.8201 44.5117C34.1866 44.3245 31.7344 43.1022 29.9997 41.112C28.8688 39.653 28.1245 37.9322 27.8357 36.1089C27.5469 34.2857 27.723 32.419 28.3477 30.682C28.9219 28.9497 29.9049 27.3811 31.2135 26.1091C32.5221 24.837 34.1178 23.8989 35.8657 23.374C37.8698 22.7694 40.0077 22.7694 42.0117 23.374C44.0419 24.013 45.8392 25.2351 47.1801 26.888C48.9123 28.9677 49.8675 31.585 49.8821 34.2916C49.9031 35.5989 49.617 36.8927 49.0468 38.0692C48.4766 39.2457 47.6382 40.2719 46.5991 41.0653C45.9691 41.5086 46.3424 42.7663 46.5991 42.974C47.9477 44.444 49.6254 46.096 50.9741 47.888C51.8071 48.9426 52.4511 50.1303 52.8851 51.402C53.0647 51.9013 53.1137 52.438 53.0251 52.963C52.9858 53.1384 52.9 53.3 52.7769 53.4309C52.6538 53.5619 52.4977 53.6573 52.3251 53.7073Z" fill="#0090BC"/>
<path fill-rule="evenodd" clip-rule="evenodd" d="M30.7207 45.9091C28.7556 46.7187 26.7767 47.4942 24.7847 48.2354C23.4719 48.6632 22.1372 49.0054 20.7807 49.2621C19.9218 49.1966 19.0579 49.2675 18.2211 49.4721C17.8575 48.93 17.5226 48.3692 17.2177 47.7921C16.1024 45.6524 15.2391 43.1371 14.2381 41.2517C12.8427 38.6221 11.5151 36.0601 10.1641 33.5004C8.81541 30.9384 7.44108 28.3787 6.18341 25.7701C4.69475 22.5827 3.15708 19.2997 1.83175 15.9701C4.69183 13.8985 7.65929 11.9794 10.7217 10.2207C13.9856 8.34047 17.4238 6.78074 20.9884 5.56341C22.8245 4.70504 24.7665 4.09458 26.7634 3.74807C28.5739 5.13682 30.0332 6.93102 31.0241 8.98641C32.9327 12.5471 34.1437 16.3901 35.6114 19.5331C35.7011 19.7552 35.8755 19.9327 36.096 20.0263C36.3165 20.1199 36.5652 20.1221 36.7874 20.0324C37.0096 19.9427 37.187 19.7684 37.2806 19.5478C37.3743 19.3273 37.3765 19.0786 37.2867 18.8564C35.9622 14.5152 34.3446 10.2689 32.4451 6.14674C31.4307 4.2781 30.0347 2.64364 28.3477 1.34941C27.6034 0.913835 26.7285 0.756724 25.8791 0.906074C23.8817 1.35874 21.9264 1.98174 20.0364 2.77041C17.0752 3.91481 14.2167 5.30894 11.4917 6.93774C-3.26659 15.7601 -1.59126 13.9191 5.18241 29.4497C6.13908 31.7784 7.16108 33.9181 8.25541 36.1067C9.3499 38.2886 10.4912 40.4466 11.6784 42.5794C12.8427 44.6747 13.6804 46.8867 14.8681 48.9821C15.4296 49.9683 16.0892 50.8837 16.8467 51.7284C17.0184 51.9004 17.2277 52.03 17.4582 52.107C17.6887 52.1839 17.9339 52.2061 18.1744 52.1717C19.2197 51.9929 20.2519 51.7517 21.2707 51.4484C22.7019 51.0813 24.1057 50.631 25.4824 50.0974C27.5101 49.3297 29.4654 48.4221 31.4207 47.4911C31.5279 47.4457 31.6247 47.379 31.7055 47.2952C31.7862 47.2114 31.8492 47.1122 31.8906 47.0034C31.932 46.8947 31.951 46.7787 31.9465 46.6624C31.9419 46.5461 31.9139 46.4319 31.8641 46.3267C31.7677 46.1198 31.5934 45.9594 31.3791 45.8807C31.1648 45.802 30.9281 45.8137 30.7207 45.9091Z" fill="#0090BC"/>
<path fill-rule="evenodd" clip-rule="evenodd" d="M14.9148 16.621L17.5212 15.319C20.1298 13.9214 22.7128 12.5004 25.4358 11.175C25.6258 11.0715 25.7712 10.9019 25.8446 10.6984C25.918 10.4949 25.9142 10.2716 25.834 10.0707C25.7538 9.86975 25.6028 9.7052 25.4094 9.60815C25.2161 9.5111 24.9939 9.48828 24.7848 9.54402C22.6428 10.244 20.5475 10.8717 18.4988 11.686C17.5912 12.036 16.7302 12.4327 15.8692 12.8527C15.0012 13.2711 14.1627 13.744 13.3538 14.2714C11.4872 15.5236 9.74105 16.9282 8.1155 18.4854C7.96751 18.6123 7.87144 18.7892 7.84561 18.9825C7.81979 19.1757 7.86603 19.3717 7.9755 19.533C8.1 19.6929 8.28249 19.7972 8.48341 19.8234C8.68434 19.8496 8.88749 19.7956 9.04883 19.673C10.1198 18.9964 11.1675 18.413 12.2595 17.8554C13.3562 17.2954 14.0072 17.0644 14.9148 16.621ZM30.6275 16.5277C30.5777 16.4249 30.5081 16.333 30.4226 16.2573C30.3371 16.1816 30.2374 16.1237 30.1293 16.0868C30.0212 16.0499 29.9069 16.0348 29.793 16.0424C29.679 16.05 29.5677 16.0801 29.4655 16.131C27.3002 17.0177 25.1348 17.8577 22.9928 18.8097C22.0828 19.2064 21.1775 19.6497 20.2932 20.0907C19.4065 20.534 18.5222 21.0473 17.6845 21.5817C15.6825 22.8137 13.8205 24.1857 11.9118 25.5857C11.8099 25.6287 11.7184 25.6931 11.6436 25.7747C11.5689 25.8562 11.5125 25.9529 11.4785 26.0582C11.4444 26.1634 11.4335 26.2748 11.4463 26.3847C11.4592 26.4946 11.4956 26.6004 11.553 26.6949C11.6105 26.7895 11.6876 26.8706 11.7792 26.9326C11.8708 26.9947 11.9747 27.0363 12.0838 27.0546C12.1929 27.0728 12.3047 27.0674 12.4115 27.0386C12.5183 27.0098 12.6177 26.9583 12.7028 26.8877C14.7982 25.8867 16.9168 25.0257 19.0122 24.048L21.6652 22.697C22.5518 22.2304 23.4128 21.7427 24.2505 21.255C26.2631 20.0984 28.2575 18.9106 30.2332 17.692C30.3363 17.6423 30.4284 17.5725 30.5043 17.4868C30.5802 17.4011 30.6383 17.3012 30.6752 17.1929C30.7121 17.0845 30.7271 16.9699 30.7193 16.8557C30.7115 16.7415 30.6788 16.63 30.6275 16.5277ZM20.3842 29.7297C19.9266 29.9038 19.4835 30.1137 19.0588 30.3574C18.6351 30.5878 18.2363 30.8615 17.8688 31.174C17.0288 31.8818 16.2534 32.6572 15.5425 33.5003C15.4505 33.5566 15.3713 33.6316 15.3101 33.7204C15.2489 33.8092 15.207 33.9099 15.1872 34.016C15.1674 34.122 15.1701 34.231 15.1952 34.3359C15.2202 34.4408 15.267 34.5393 15.3325 34.625C15.3984 34.7108 15.4817 34.7817 15.5769 34.8331C15.6721 34.8845 15.777 34.9153 15.8849 34.9234C15.9928 34.9316 16.1011 34.9169 16.203 34.8804C16.3048 34.8438 16.3978 34.7862 16.4758 34.7113C17.5678 34.1514 18.8022 33.8013 19.8032 33.2437C20.4332 32.917 21.0142 32.5203 21.5952 32.1494C22.1785 31.776 23.3428 30.8917 24.2738 30.3807C24.4898 30.3033 24.6662 30.1433 24.7642 29.9359C24.8622 29.7285 24.8739 29.4907 24.7965 29.2747C24.7191 29.0587 24.5592 28.8823 24.3517 28.7843C24.1443 28.6863 23.9065 28.6747 23.6905 28.752C22.5549 28.9682 21.4528 29.2941 20.3842 29.7297Z" fill="#0090BC"/>
<path d="M34 28.8525H43M34 32.6331H43M37.8565 28.8525C38.7138 29.0812 40.4283 29.8849 40.4283 32.289C40.4283 36.4137 35.2848 36.4137 35.2848 36.4137C35.2848 36.4137 37.8565 38.8202 41.713 39.8525" stroke="#0090BC" stroke-width="2" stroke-linecap="round" stroke-linejoin="round"/>
</g>
<defs>
<clipPath id="clip0_247_3665">
<rect width="56" height="56" fill="white" transform="translate(0 0.852539)"/>
</clipPath>
</defs>
</svg>
