<svg width="57" height="57" viewBox="0 0 57 57" fill="none" xmlns="http://www.w3.org/2000/svg">
<path d="M19.1666 28.8527L26.1666 35.8527L37.8333 19.5194M9.83325 27.1074C9.83325 45.0437 25.9753 51.3437 28.2363 52.1394C28.412 52.2016 28.5878 52.2016 28.7636 52.1394C31.0293 51.3694 47.1666 45.2281 47.1666 27.1097V10.8954C47.1671 10.6869 47.0977 10.4842 46.9696 10.3197C46.8414 10.1552 46.6619 10.0383 46.4596 9.98772L28.7263 5.54739C28.5777 5.51025 28.4222 5.51025 28.2736 5.54739L10.5403 9.98772C10.3379 10.0383 10.1584 10.1552 10.0303 10.3197C9.90212 10.4842 9.83276 10.6869 9.83325 10.8954V27.1074Z" stroke="#0090BC" stroke-width="3" stroke-linecap="round" stroke-linejoin="round"/>
</svg>
