<svg width="56" height="57" viewBox="0 0 56 57" fill="none" xmlns="http://www.w3.org/2000/svg">
<path d="M4.66675 47.5192V45.1859C4.66675 40.854 6.38758 36.6996 9.45067 33.6365C12.5138 30.5734 16.6682 28.8525 21.0001 28.8525" stroke="#0090BC" stroke-width="3" stroke-linecap="round" stroke-linejoin="round"/>
<path d="M36.876 29.5854C37.2302 29.1977 37.6613 28.8881 38.1418 28.6762C38.6223 28.4644 39.1416 28.355 39.6667 28.355C40.1918 28.355 40.7112 28.4644 41.1916 28.6762C41.6721 28.8881 42.1032 29.1977 42.4574 29.5854C43.2157 30.416 44.3007 30.8664 45.4254 30.8127C45.9502 30.7888 46.4742 30.8746 46.964 31.0645C47.4538 31.2545 47.8987 31.5444 48.2701 31.9159C48.6416 32.2874 48.9316 32.7322 49.1215 33.222C49.3115 33.7119 49.3973 34.2359 49.3734 34.7607C49.3197 35.883 49.77 36.9704 50.6007 37.7287C52.2457 39.2267 52.2457 41.812 50.6007 43.31C49.77 44.0684 49.3197 45.1534 49.3734 46.278C49.3973 46.8028 49.3115 47.3269 49.1215 47.8167C48.9316 48.3065 48.6416 48.7513 48.2701 49.1228C47.8987 49.4943 47.4538 49.7842 46.964 49.9742C46.4742 50.1641 45.9502 50.2499 45.4254 50.226C44.8709 50.2001 44.3175 50.2967 43.8045 50.5088C43.2916 50.7209 42.8316 51.0434 42.4574 51.4534C42.1032 51.841 41.6721 52.1507 41.1916 52.3625C40.7112 52.5743 40.1918 52.6837 39.6667 52.6837C39.1416 52.6837 38.6223 52.5743 38.1418 52.3625C37.6613 52.1507 37.2302 51.841 36.876 51.4534C36.5018 51.0434 36.0418 50.7209 35.5289 50.5088C35.0159 50.2967 34.4625 50.2001 33.908 50.226C33.3832 50.2499 32.8592 50.1641 32.3694 49.9742C31.8796 49.7842 31.4347 49.4943 31.0633 49.1228C30.6918 48.7513 30.4018 48.3065 30.2119 47.8167C30.0219 47.3269 29.9362 46.8028 29.96 46.278C29.9856 45.7234 29.8887 45.1699 29.6762 44.6569C29.4637 44.1439 29.1407 43.6841 28.7304 43.31C28.3427 42.9558 28.0331 42.5248 27.8212 42.0443C27.6094 41.5638 27.5 41.0445 27.5 40.5194C27.5 39.9943 27.6094 39.4749 27.8212 38.9944C28.0331 38.5139 28.3427 38.0829 28.7304 37.7287C29.5634 36.9704 30.0137 35.8854 29.96 34.7607C29.9362 34.2359 30.0219 33.7119 30.2119 33.222C30.4018 32.7322 30.6918 32.2874 31.0633 31.9159C31.4347 31.5444 31.8796 31.2545 32.3694 31.0645C32.8592 30.8746 33.3832 30.7888 33.908 30.8127C35.0304 30.8664 36.1177 30.416 36.876 29.583V29.5854Z" stroke="#0090BC" stroke-width="3"/>
<path d="M35.8494 40.5194L38.3928 43.0627L43.4841 37.976M21.0001 28.8527C23.4754 28.8527 25.8494 27.8694 27.5997 26.119C29.3501 24.3687 30.3334 21.9947 30.3334 19.5194C30.3334 17.044 29.3501 14.67 27.5997 12.9197C25.8494 11.1694 23.4754 10.186 21.0001 10.186C18.5247 10.186 16.1508 11.1694 14.4004 12.9197C12.6501 14.67 11.6667 17.044 11.6667 19.5194C11.6667 21.9947 12.6501 24.3687 14.4004 26.119C16.1508 27.8694 18.5247 28.8527 21.0001 28.8527Z" stroke="#0090BC" stroke-width="3" stroke-linecap="round" stroke-linejoin="round"/>
</svg>
