<svg width="293" height="293" viewBox="0 0 293 293" fill="none" xmlns="http://www.w3.org/2000/svg">
<path opacity="0.2" d="M146.875 292.249C227.578 292.249 293 226.827 293 146.125C293 65.4222 227.578 0 146.875 0C66.1729 0 0.750732 65.4222 0.750732 146.125C0.750732 226.827 66.1729 292.249 146.875 292.249Z" fill="#EEE9EC"/>
<path d="M207.668 193.647C180.84 185.28 164.455 176.343 164.455 176.343L146.135 178.059L127.815 176.343C127.815 176.343 111.43 185.28 84.6023 193.647C57.7743 202.014 47.2533 235.155 50.9353 266.717C50.9353 266.717 76.4552 290.034 143.115 291.378V291.442C144.131 291.442 145.136 291.435 146.135 291.425C147.134 291.435 148.138 291.442 149.155 291.442V291.378C215.816 290.034 241.335 266.717 241.335 266.717C245.016 235.155 234.496 202.014 207.668 193.647Z" fill="#502445"/>
<path d="M169.645 146.251L147.075 143.994L124.505 146.251C124.505 146.251 128.267 167.692 122.248 184.243C122.248 184.243 129.771 193.647 147.075 193.647C164.378 193.647 171.902 184.243 171.902 184.243C165.884 167.692 169.645 146.251 169.645 146.251Z" fill="#FDB2B6"/>
<path d="M169.645 146.251L147.075 143.994L124.505 146.251C124.505 146.251 125.678 152.944 125.665 161.736C128.293 165.63 131.261 169.056 134.537 171.725C139.152 175.486 147.808 176.343 150.085 176.343C152.361 176.343 161.017 175.486 165.633 171.725C166.714 170.844 167.759 169.872 168.773 168.837C167.796 156.816 169.645 146.251 169.645 146.251Z" fill="#FDB2B6"/>
<path d="M145.947 63.6841C123.095 63.6841 108.143 82.2091 108.143 105.061C108.143 122.2 116.554 146.903 130.399 158.184C135.014 161.944 143.67 162.802 145.947 162.802C148.223 162.802 156.879 161.944 161.495 158.184C175.341 146.904 183.751 122.201 183.751 105.061C183.751 82.2101 168.799 63.6841 145.947 63.6841Z" fill="#FDB2B6"/>
<path d="M172.466 74.4992C172.466 67.1762 160.593 61.2402 145.947 61.2402C131.301 61.2402 119.427 67.1772 119.427 74.4992C119.427 81.8222 131.3 87.7592 145.947 87.7592C160.592 87.7592 172.466 81.8222 172.466 74.4992Z" fill="#0090BC"/>
<path d="M127.891 78.731C127.891 78.731 108.965 87.04 109.823 119.702C109.823 119.702 105.603 108.918 106.45 93.402C107.297 77.885 123.533 67.415 123.533 67.415L127.891 78.731Z" fill="#0090BC"/>
<path d="M164.003 78.731C164.003 78.731 182.929 87.04 182.07 119.702C182.07 119.702 186.29 108.918 185.443 93.402C184.597 77.885 168.36 67.415 168.36 67.415L164.003 78.731Z" fill="#0090BC"/>
<path d="M115.481 71.9601C115.481 71.9601 113.928 62.4931 127.465 55.8791C147.675 46.0051 178.974 57.8541 183.886 90.0431C183.886 90.0431 150.357 66.0351 115.481 71.9601Z" fill="#0090BC"/>
<path d="M121.967 67.4141C121.967 67.4141 117.341 63.6961 109.554 71.9601C101.767 80.2241 106.502 102.461 106.502 102.461C106.502 102.461 116.325 72.4951 127.892 71.0991C139.459 69.7041 120.389 67.4151 120.389 67.4151" fill="#0090BC"/>
<path d="M169.455 67.4141C169.455 67.4141 174.082 63.6961 181.869 71.9601C189.656 80.2241 184.921 102.461 184.921 102.461C184.921 102.461 175.098 72.4951 163.531 71.0991C151.964 69.7041 171.033 67.4151 171.033 67.4151" fill="#0090BC"/>
<path d="M197.799 122.1C196.639 132.631 186.755 140.183 181.489 139.602C176.223 139.022 177.569 130.529 178.73 119.998C179.891 109.466 180.426 100.885 185.692 101.465C190.958 102.046 198.96 111.569 197.799 122.1Z" fill="#502445"/>
<path d="M183.244 119.998C184.187 111.442 184.718 104.174 187.707 102.058C187.01 101.739 186.331 101.535 185.692 101.465C180.426 100.885 179.891 109.466 178.73 119.998C177.569 130.529 176.223 139.022 181.489 139.602C182.409 139.704 183.471 139.551 184.602 139.184C181.011 137.276 182.201 129.463 183.244 119.998Z" fill="white"/>
<path d="M94.4712 122.1C95.6322 132.631 105.515 140.183 110.78 139.602C116.046 139.022 114.7 130.529 113.539 119.998C112.378 109.466 111.843 100.885 106.577 101.465C101.312 102.046 93.3102 111.569 94.4712 122.1Z" fill="#502445"/>
<path d="M113.539 119.998C112.378 109.466 111.843 100.885 106.577 101.465C105.939 101.535 105.26 101.739 104.563 102.058C107.552 104.174 108.083 111.442 109.025 119.998C110.068 129.462 111.257 137.276 107.667 139.184C108.797 139.551 109.86 139.704 110.78 139.602C116.046 139.022 114.7 130.529 113.539 119.998Z" fill="white"/>
<path d="M189.498 108.032L186.279 106.984C186.379 106.674 196.177 75.8229 182.496 56.9899C175.388 47.2049 163.091 42.2439 145.947 42.2439C128.798 42.2439 116.498 47.2089 109.391 56.9999C95.7023 75.8569 105.514 106.674 105.615 106.983L102.396 108.031C101.963 106.702 91.9593 75.2499 106.652 55.0099C114.432 44.2919 127.653 38.8579 145.947 38.8579C164.241 38.8579 177.462 44.2919 185.242 55.0099C199.934 75.2499 189.93 106.702 189.498 108.032Z" fill="#502445"/>
<path d="M112.044 56.5091C110.693 56.5091 109.346 55.9731 108.347 54.9131C106.424 52.8721 106.52 49.6581 108.561 47.7351C117.198 39.5991 129.776 35.4731 145.947 35.4731C161.791 35.4731 174.193 39.4361 182.81 47.2521C184.887 49.1361 185.043 52.3481 183.16 54.4251C181.275 56.5031 178.064 56.6591 175.986 54.7751C169.296 48.7071 159.189 45.6301 145.947 45.6301C132.45 45.6301 122.215 48.8251 115.525 55.1281C114.545 56.0511 113.293 56.5091 112.044 56.5091Z" fill="#0090BC"/>
<path d="M150.085 156.408V154.15C166.041 154.15 177.87 150.064 184.294 142.333C189.063 136.593 189.205 130.869 189.205 130.811L191.463 130.845C191.458 131.112 191.302 137.429 186.029 143.775C181.242 149.538 171.119 156.408 150.085 156.408Z" fill="#502445"/>
<path d="M155.727 154.903C155.727 157.395 152.443 159.417 148.392 159.417C144.341 159.417 141.057 157.396 141.057 154.903C141.057 152.41 144.341 150.388 148.392 150.388C152.443 150.388 155.727 152.41 155.727 154.903Z" fill="#502445"/>
<path opacity="0.5" d="M223.831 253.993C221.101 258.089 223.603 238.52 222.466 228.282C222.466 228.282 221.005 255.6 215.81 280.258C217.547 279.621 219.185 278.981 220.732 278.342C223.418 268.671 227.277 253.161 228.837 238.976C228.837 238.976 226.561 249.897 223.831 253.993ZM72.9533 253.993C70.2233 249.897 67.9473 238.975 67.9473 238.975C69.6193 254.172 73.9273 270.88 76.6063 280.309C78.1103 280.859 79.6863 281.405 81.3363 281.943C75.8463 256.864 74.3183 228.282 74.3183 228.282C73.1813 238.52 75.6833 258.089 72.9533 253.993Z" fill="#0090BC"/>
</svg>
